<svg xmlns="http://www.w3.org/2000/svg" xmlns:xlink="http://www.w3.org/1999/xlink" xmlns:lucid="lucid" width="1740" height="1086.45"><g transform="translate(120 460)" lucid:page-tab-id="0_0"><path d="M-1806.87-1258.83h3677.74v2581.66h-3677.74z" fill="#fff"/><path d="M1201.65-364.5h-40.7v-1h40.7zm57.4 0h-40.7v-1h40.7z" stroke="#3a414a" stroke-width=".05" fill="#3a414a"/><path d="M1160.98-364.5h-.52v-1h.52z" fill="#3a414a"/><path d="M1161-364.48h-.56v-1.04h.56zm-.5-1v.96h.45v-.96z" stroke="#3a414a" stroke-width=".05" fill="#3a414a"/><path d="M1259.54-365v.5h-.52v-1h.52z" fill="#3a414a"/><path d="M1259.56-365v.52h-.56v-1.04h.56zm-.5-.48v.96h.45v-.96z" stroke="#3a414a" stroke-width=".05" fill="#3a414a"/><use xlink:href="#a" transform="matrix(1,0,0,1,1201.6544479201564,-375.6666666666667) translate(0 14.222222222222223)"/><use xlink:href="#b" transform="matrix(1,0,0,1,1160.9635262379427,-361) translate(0 14.4)"/><use xlink:href="#c" transform="matrix(1,0,0,1,1249.5367276270615,-390.6) translate(0 14.4)"/><path d="M100.96 220H144a6 6 0 0 0 6-6v-88a6 6 0 0 1 6-6h27.15" stroke="#3a414a" fill="none"/><path d="M100.98 220.5h-.52v-1h.52z" stroke="#3a414a" stroke-width=".05" fill="#3a414a"/><path d="M197.92 120l-14.27 4.64v-9.28z" stroke="#3a414a" fill="#fff"/><path d="M100.96 20H144a6 6 0 0 1 6 6v88a6 6 0 0 0 6 6h27.15" stroke="#3a414a" fill="none"/><path d="M100.98 20.5h-.52v-1h.52z" stroke="#3a414a" stroke-width=".05" fill="#3a414a"/><path d="M197.92 120l-14.27 4.64v-9.28zM-100-54a6 6 0 0 1 6-6H94a6 6 0 0 1 6 6V94a6 6 0 0 1-6 6H-94a6 6 0 0 1-6-6z" stroke="#3a414a" fill="#fff"/><path d="M-100-22.4h200" stroke="#3a414a" fill="none"/><use xlink:href="#d" transform="matrix(1,0,0,1,-92,-52) translate(25.100000000000023 14.599999999999998)"/><use xlink:href="#e" transform="matrix(1,0,0,1,-88,-14.400000000000006) translate(0 24.700000000000006)"/><use xlink:href="#f" transform="matrix(1,0,0,1,-88,-14.400000000000006) translate(0 46.3)"/><use xlink:href="#g" transform="matrix(1,0,0,1,-88,-14.400000000000006) translate(0 67.89999999999999)"/><use xlink:href="#h" transform="matrix(1,0,0,1,-88,-14.400000000000006) translate(0 89.49999999999999)"/><path d="M200 86a6 6 0 0 1 6-6h188a6 6 0 0 1 6 6v68a6 6 0 0 1-6 6H206a6 6 0 0 1-6-6z" stroke="#3a414a" fill="#fff"/><use xlink:href="#i" transform="matrix(1,0,0,1,208,88) translate(9.150000000000006 35.6)"/><path d="M-100 146a6 6 0 0 1 6-6H94a6 6 0 0 1 6 6v148a6 6 0 0 1-6 6H-94a6 6 0 0 1-6-6z" stroke="#3a414a" fill="#fff"/><path d="M-100 177.6h200" stroke="#3a414a" fill="none"/><use xlink:href="#j" transform="matrix(1,0,0,1,-92,148) translate(0.6750000000000114 14.6)"/><use xlink:href="#k" transform="matrix(1,0,0,1,-88,185.6) translate(0 24.69999999999999)"/><use xlink:href="#l" transform="matrix(1,0,0,1,-88,185.6) translate(0 46.29999999999999)"/><use xlink:href="#m" transform="matrix(1,0,0,1,-88,185.6) translate(0 67.89999999999999)"/><use xlink:href="#n" transform="matrix(1,0,0,1,-88,185.6) translate(0 89.5)"/><path d="M740 406a6 6 0 0 1 6-6h188a6 6 0 0 1 6 6v148a6 6 0 0 1-6 6H746a6 6 0 0 1-6-6z" stroke="#3a414a" fill="#fff"/><path d="M740 437.6h200" stroke="#3a414a" fill="none"/><use xlink:href="#j" transform="matrix(1,0,0,1,748,408) translate(0.6750000000000114 14.6)"/><use xlink:href="#k" transform="matrix(1,0,0,1,752,445.6) translate(0 24.69999999999999)"/><use xlink:href="#l" transform="matrix(1,0,0,1,752,445.6) translate(0 46.29999999999999)"/><use xlink:href="#m" transform="matrix(1,0,0,1,752,445.6) translate(0 67.89999999999999)"/><use xlink:href="#n" transform="matrix(1,0,0,1,752,445.6) translate(0 89.5)"/><path d="M1260-434a6 6 0 0 1 6-6h188a6 6 0 0 1 6 6v138a6 6 0 0 1-6 6h-188a6 6 0 0 1-6-6z" stroke="#3a414a" fill="#fff"/><path d="M1260-402.4h200" stroke="#3a414a" fill="none"/><use xlink:href="#j" transform="matrix(1,0,0,1,1268,-432) translate(0.6750000000000114 14.6)"/><use xlink:href="#k" transform="matrix(1,0,0,1,1272,-394.4) translate(0 19.69999999999999)"/><use xlink:href="#l" transform="matrix(1,0,0,1,1272,-394.4) translate(0 41.29999999999999)"/><use xlink:href="#m" transform="matrix(1,0,0,1,1272,-394.4) translate(0 62.89999999999999)"/><use xlink:href="#n" transform="matrix(1,0,0,1,1272,-394.4) translate(0 84.5)"/><path d="M347.08 232.07l.2.82.33.78.46.74.56.66.66.56.73.45.8.32.85.2.88.07h117.12v1H352.5l-1-.1-1-.23-.94-.4-.87-.52-.8-.67-.65-.77-.53-.86-.4-.94-.24-1-.07-71.25h1zM759 236.7v1H612.63v-1z" stroke="#3a414a" stroke-width=".05" fill="#3a414a"/><path d="M759.5 237.7h-.5v-1h.5z" fill="#3a414a"/><path d="M759.54 237.7h-.56v-1.04h.56zm-.5-1v.96h.45v-.95z" stroke="#3a414a" stroke-width=".05" fill="#3a414a"/><path d="M347 160.96h-1v-.5l1-.02z" fill="#3a414a"/><path d="M347.03 160.98h-1.05v-.56h1.05zm-1-.5v.45h.95v-.46z" stroke="#3a414a" stroke-width=".05" fill="#3a414a"/><use xlink:href="#o" transform="matrix(1,0,0,1,469.6523767862357,226.5209196872013) translate(0 14.222222222222223)"/><use xlink:href="#b" transform="matrix(1,0,0,1,732.0128872092452,211.58758635386798) translate(0 14.4)"/><use xlink:href="#c" transform="matrix(1,0,0,1,354.5092541178642,165.67558496885746) translate(0 14.4)"/><path d="M251.03 284.06l.2.82.33.8.45.73.57.67.65.56.74.45.8.33.84.2.88.08h215.4v1H256.43l-1-.08-1-.24-.94-.4-.87-.52-.77-.66-.66-.78-.54-.87-.4-.94-.23-1.02-.07-123.2h1zm508.04 4.62v1H623.73v-1z" stroke="#3a414a" stroke-width=".05" fill="#3a414a"/><path d="M759.57 289.68h-.5v-1h.5z" fill="#3a414a"/><path d="M759.6 289.7h-.57v-1.05h.56zm-.52-1v.95h.46v-.95z" stroke="#3a414a" stroke-width=".05" fill="#3a414a"/><path d="M250.96 161h-1v-.52h1z" fill="#3a414a"/><path d="M250.98 161.02h-1.05v-.56h1.05zm-1-.5v.45h.95v-.46z" stroke="#3a414a" stroke-width=".05" fill="#3a414a"/><use xlink:href="#p" transform="matrix(1,0,0,1,471.8745990084578,278.5130842989202) translate(0 14.222222222222223)"/><use xlink:href="#b" transform="matrix(1,0,0,1,732.0678651530975,263.57975096558687) translate(0 14.4)"/><use xlink:href="#c" transform="matrix(1,0,0,1,258.45579909827114,163.00362694522738) translate(0 14.4)"/><path d="M840.5 399.04h-1v-38.37h1zm0-59.7h-1v-38.38h1z" stroke="#3a414a" stroke-width=".05" fill="#3a414a"/><path d="M840.5 399.54h-1v-.52h1z" fill="#3a414a"/><path d="M840.52 399.56h-1.04V399h1.04zm-1-.5v.45h.96v-.45z" stroke="#3a414a" stroke-width=".05" fill="#3a414a"/><path d="M840.5 300.98h-1v-.52h1z" fill="#3a414a"/><path d="M840.52 301h-1.04v-.56h1.04zm-1-.5v.45h.96v-.46z" stroke="#3a414a" stroke-width=".05" fill="#3a414a"/><use xlink:href="#q" transform="matrix(1,0,0,1,776.395061728395,339.3333580122693) translate(0 14.222222222222223)"/><use xlink:href="#c" transform="matrix(1,0,0,1,848,377.736793766279) translate(0 14.4)"/><use xlink:href="#c" transform="matrix(1,0,0,1,822,300.6632555915929) translate(0 14.4)"/><path d="M1340-204a6 6 0 0 1 6-6h248a6 6 0 0 1 6 6v108a6 6 0 0 1-6 6h-248a6 6 0 0 1-6-6z" stroke="#3a414a" fill="#fff"/><path d="M1340-172.4h260" stroke="#3a414a" fill="none"/><use xlink:href="#r" transform="matrix(1,0,0,1,1348,-202) translate(7.675000000000026 14.6)"/><use xlink:href="#s" transform="matrix(1,0,0,1,1352,-164.4) translate(0 26.299999999999997)"/><use xlink:href="#t" transform="matrix(1,0,0,1,1352,-164.4) translate(0 47.9)"/><path d="M300.5 79.04h-1v-432.87h1zM759.04-364l-416.82.07v-1l416.82-.07z" stroke="#3a414a" stroke-width=".05" fill="#3a414a"/><path d="M300.5 79.54h-1v-.52h1z" fill="#3a414a"/><path d="M300.52 79.56h-1.04V79h1.04zm-1-.5v.45h.96v-.45z" stroke="#3a414a" stroke-width=".05" fill="#3a414a"/><path d="M759.54-364h-.52v-1h.52z" fill="#3a414a"/><path d="M759.56-363.98H759v-1.04h.56zm-.5-1v.96h.45v-.96z" stroke="#3a414a" stroke-width=".05" fill="#3a414a"/><use xlink:href="#u" transform="matrix(1,0,0,1,273.2807077987343,-375.1666666666667) translate(0 14.222222222222223)"/><use xlink:href="#b" transform="matrix(1,0,0,1,732.036480968686,-390.1) translate(0 14.4)"/><use xlink:href="#v" transform="matrix(1,0,0,1,308,57.73679376627901) translate(0 14.4)"/><use xlink:href="#w" transform="matrix(1,0,0,1,308,58.513479984698506) translate(0 14.222222222222223)"/><path d="M760-399a6 6 0 0 1 6-6h148a6 6 0 0 1 6 6v69a6 6 0 0 1-6 6H766a6 6 0 0 1-6-6z" stroke="#3a414a" fill="#fff"/><use xlink:href="#x" transform="matrix(1,0,0,1,768,-397) translate(18.14999999999999 36.1)"/><path d="M999.04-365h-38.8a.25.25 0 0 0-.24.25.25.25 0 0 1-.25.25h-22.9" stroke="#3a414a" fill="none"/><path d="M999.54-364.5h-.52v-1h.52z" stroke="#3a414a" stroke-width=".05" fill="#3a414a"/><path d="M922.08-364.5l14.27-4.64v9.28z" stroke="#3a414a" fill="#fff"/><path d="M1268.16 60.56h-43.1l-.82.2-.8.34-.73.45-.65.56-.56.67-.46.73-.33.8-.2.84-.06.88v153.04h-1V65.98l.08-1 .24-1 .4-.93.52-.87.66-.78.78-.66.87-.53.93-.38 1-.25h43.23zM1406.8-89.02L1406.74 55l-.24 1-.4.95-.53.87-.66.78-.77.66-.87.53-.94.38-1 .24-1 .08-52.26.02v-1l52.23-.02.87-.07.84-.2.8-.33.74-.45.66-.56.56-.67.45-.73.34-.8.2-.82.07-143.9z" stroke="#3a414a" stroke-width=".05" fill="#3a414a"/><path d="M1220.44 219.56h-1v-.52h1z" fill="#3a414a"/><path d="M1220.47 219.58h-1.05v-.56h1.05zm-1-.5v.45h.95v-.46z" stroke="#3a414a" stroke-width=".05" fill="#3a414a"/><path d="M1406.8-89h-1v-.52h1z" fill="#3a414a"/><path d="M1406.83-88.98h-1.05v-.56h1.05zm-1-.5v.45h.95v-.46z" stroke="#3a414a" stroke-width=".05" fill="#3a414a"/><use xlink:href="#y" transform="matrix(1,0,0,1,1268.1552238426052,49.33330865439737) translate(0 14.222222222222223)"/><use xlink:href="#c" transform="matrix(1,0,0,1,1227.941908321424,197.75663512935054) translate(0 14.4)"/><use xlink:href="#c" transform="matrix(1,0,0,1,1388.3085419017934,-89.31791651711639) translate(0 14.4)"/><path d="M1366.18 100.48l-57.85.02-.88.07-.84.2-.8.33-.72.45-.66.56-.56.67-.45.73-.32.8-.2.82-.07 113.9h-1l.08-114.02.24-1 .4-.95.53-.87.66-.78.8-.66.86-.53.94-.38 1-.24 1-.08 57.88-.02zm166.23-6.46l-.07 1-.24 1-.4.93-.53.87-.66.78-.77.66-.87.53-.94.38-1 .25-74.96.02v-1l74.83-.02.8-.2.8-.33.74-.45.66-.56.56-.67.45-.73.34-.8.2-.84.07-.88V-89.06h1z" stroke="#3a414a" stroke-width=".05" fill="#3a414a"/><path d="M1532.4-89.04h-1v-.52h1z" fill="#3a414a"/><path d="M1532.43-89.02h-1.05v-.56h1.05zm-1-.5v.45h.95v-.46z" stroke="#3a414a" stroke-width=".05" fill="#3a414a"/><path d="M1302.8 219.52h-1V219h1z" fill="#3a414a"/><path d="M1302.83 219.54h-1.05v-.56h1.05zm-1-.5v.45h.95v-.47z" stroke="#3a414a" stroke-width=".05" fill="#3a414a"/><use xlink:href="#z" transform="matrix(1,0,0,1,1366.1816579843521,89.33333333333333) translate(0 14.222222222222223)"/><use xlink:href="#c" transform="matrix(1,0,0,1,1513.9084196957901,-89.35522989032428) translate(0 14.4)"/><use xlink:href="#c" transform="matrix(1,0,0,1,1310.3072777181712,197.7157368611247) translate(0 14.4)"/><path d="M1179.04 259.5h-242.2" stroke="#3a414a" fill="none"/><path d="M1179.54 260h-.52v-1h.52z" stroke="#3a414a" stroke-width=".05" fill="#3a414a"/><path d="M922.08 259.5l14.27-4.64v9.28zM760 225a6 6 0 0 1 6-6h148a6 6 0 0 1 6 6v69a6 6 0 0 1-6 6H766a6 6 0 0 1-6-6z" stroke="#3a414a" fill="#fff"/><use xlink:href="#A" transform="matrix(1,0,0,1,768,227) translate(4.599999999999994 36.1)"/><path d="M840.5-200.96h-1v-50.37h1zm0-71.7h-1v-50.38h1z" stroke="#3a414a" stroke-width=".05" fill="#3a414a"/><path d="M840.5-200.46h-1v-.52h1z" fill="#3a414a"/><path d="M840.52-200.44h-1.04v-.56h1.04zm-1-.5v.45h.96v-.45z" stroke="#3a414a" stroke-width=".05" fill="#3a414a"/><path d="M840.5-323.02h-1v-.52h1z" fill="#3a414a"/><path d="M840.52-323h-1.04v-.56h1.04zm-1-.5v.45h.96v-.46z" stroke="#3a414a" stroke-width=".05" fill="#3a414a"/><use xlink:href="#B" transform="matrix(1,0,0,1,754.2222222222222,-272.6666331924025) translate(0 14.222222222222223)"/><use xlink:href="#c" transform="matrix(1,0,0,1,848,-222.2631886430646) translate(0 14.4)"/><use xlink:href="#c" transform="matrix(1,0,0,1,822,-323.3367444084071) translate(0 14.4)"/><path d="M840.5-.96h-1v-38.37h1zm0-59.7h-1v-38.38h1z" stroke="#3a414a" stroke-width=".05" fill="#3a414a"/><path d="M840.5-.46h-1v-.52h1z" fill="#3a414a"/><path d="M840.52-.44h-1.04V-1h1.04zm-1-.5v.45h.96v-.45z" stroke="#3a414a" stroke-width=".05" fill="#3a414a"/><path d="M840.5-99.02h-1v-.52h1z" fill="#3a414a"/><path d="M840.52-99h-1.04v-.56h1.04zm-1-.5v.45h.96v-.46z" stroke="#3a414a" stroke-width=".05" fill="#3a414a"/><use xlink:href="#C" transform="matrix(1,0,0,1,744.3703703703704,-60.66666666666666) translate(0 14.222222222222223)"/><use xlink:href="#D" transform="matrix(1,0,0,1,848,-22.263188643064613) translate(0 14.4)"/><use xlink:href="#b" transform="matrix(1,0,0,1,805,-99.3368113569354) translate(0 14.4)"/><path d="M840.5 218.04h-1v-38.87h1zm0-60.2h-1v-38.88h1z" stroke="#3a414a" stroke-width=".05" fill="#3a414a"/><path d="M840.5 218.54h-1v-.52h1z" fill="#3a414a"/><path d="M840.52 218.56h-1.04V218h1.04zm-1-.5v.45h.96v-.45z" stroke="#3a414a" stroke-width=".05" fill="#3a414a"/><path d="M840.5 118.98h-1v-.52h1z" fill="#3a414a"/><path d="M840.52 119h-1.04v-.56h1.04zm-1-.5v.45h.96v-.46z" stroke="#3a414a" stroke-width=".05" fill="#3a414a"/><use xlink:href="#E" transform="matrix(1,0,0,1,734.9382716049382,157.8332998590692) translate(0 14.222222222222223)"/><use xlink:href="#D" transform="matrix(1,0,0,1,848,196.73674440840708) translate(0 14.4)"/><use xlink:href="#F" transform="matrix(1,0,0,1,805,118.66318864306466) translate(0 14.4)"/><path d="M1000-183.5a6 6 0 0 1 6-6h148a6 6 0 0 1 6 6v67a6 6 0 0 1-6 6h-148a6 6 0 0 1-6-6z" stroke="#3a414a" fill="#fff"/><use xlink:href="#G" transform="matrix(1,0,0,1,1008,-181.5) translate(27.1 35.1)"/><path d="M999.04-150h-32.2" stroke="#3a414a" fill="none"/><path d="M999.54-149.5h-.52v-1h.52z" stroke="#3a414a" stroke-width=".05" fill="#3a414a"/><path d="M952.08-150l14.27-4.64v9.28z" stroke="#3a414a" fill="#fff"/><path d="M1207.1-149.5h-46.14v-1h46.15zm131.94 0h-46.15v-1h46.14z" stroke="#3a414a" stroke-width=".05" fill="#3a414a"/><path d="M1160.98-149.5h-.52v-1h.52z" fill="#3a414a"/><path d="M1161-149.47h-.56v-1.06h.56zm-.5-1v.94h.45v-.94z" stroke="#3a414a" stroke-width=".05" fill="#3a414a"/><path d="M1339.54-149.5h-.52v-1h.52z" fill="#3a414a"/><path d="M1339.56-149.47h-.56v-1.06h.56zm-.5-1v.94h.45v-.94z" stroke="#3a414a" stroke-width=".05" fill="#3a414a"/><use xlink:href="#z" transform="matrix(1,0,0,1,1207.1112073350616,-160.66666666666666) translate(0 14.222222222222223)"/><use xlink:href="#c" transform="matrix(1,0,0,1,1160.4635336568456,-146.00000000000003) translate(0 14.4)"/><use xlink:href="#c" transform="matrix(1,0,0,1,1329.5366587910553,-175.60000000000002) translate(0 14.4)"/><path d="M1034.92-239.93H917.8l-.82.2-.8.34-.74.46-.65.56-.57.66-.45.73-.33.8-.2.85-.07.88V-201h-1v-33.5l.07-1 .24-1 .38-.94.54-.87.66-.8.77-.65.87-.53.95-.4 1-.24h117.25zm352-.98l1 .23.93.4.87.52.78.66.66.8.53.86.38.94.25 1 .07 24.56h-1l-.07-24.43-.2-.82-.33-.8-.45-.72-.56-.66-.67-.56-.73-.45-.8-.32-.84-.2-.88-.07-126.17.03v-1l126.22-.02z" stroke="#3a414a" stroke-width=".05" fill="#3a414a"/><path d="M913.18-200.5h-1v-.5h1z" fill="#3a414a"/><path d="M913.2-200.46h-1.05v-.57h1.05zm-1-.52v.47h.95v-.48z" stroke="#3a414a" stroke-width=".05" fill="#3a414a"/><path d="M1392.4-210.44h-1v-.5h1z" fill="#3a414a"/><path d="M1392.42-210.42h-1.05v-.56h1.05zm-1-.5v.46h.95v-.47z" stroke="#3a414a" stroke-width=".05" fill="#3a414a"/><use xlink:href="#H" transform="matrix(1,0,0,1,1034.916972082043,-251.1555791311168) translate(0 14.222222222222223)"/><use xlink:href="#c" transform="matrix(1,0,0,1,920.6752657479776,-222.28891246445016) translate(0 14.4)"/><use xlink:href="#c" transform="matrix(1,0,0,1,1399.8998492578435,-232.23995984939506) translate(0 14.4)"/><path d="M1000-399a6 6 0 0 1 6-6h148a6 6 0 0 1 6 6v68a6 6 0 0 1-6 6h-148a6 6 0 0 1-6-6z" stroke="#3a414a" fill="#fff"/><use xlink:href="#I" transform="matrix(1,0,0,1,1008,-397) translate(47.55 35.6)"/><path d="M1180 226a6 6 0 0 1 6-6h148a6 6 0 0 1 6 6v68a6 6 0 0 1-6 6h-148a6 6 0 0 1-6-6z" stroke="#3a414a" fill="#fff"/><use xlink:href="#J" transform="matrix(1,0,0,1,1188,228) translate(16.6 35.6)"/><path d="M730 6a6 6 0 0 1 6-6h208a6 6 0 0 1 6 6v106a6 6 0 0 1-6 6H736a6 6 0 0 1-6-6z" stroke="#3a414a" fill="#fff"/><path d="M730 37.6h220" stroke="#3a414a" fill="none"/><use xlink:href="#K" transform="matrix(1,0,0,1,738,8) translate(41.074999999999996 14.6)"/><use xlink:href="#L" transform="matrix(1,0,0,1,742,45.6) translate(0 25.299999999999997)"/><use xlink:href="#M" transform="matrix(1,0,0,1,742,45.6) translate(0 46.9)"/><path d="M730-194a6 6 0 0 1 6-6h208a6 6 0 0 1 6 6v88a6 6 0 0 1-6 6H736a6 6 0 0 1-6-6z" stroke="#3a414a" fill="#fff"/><path d="M730-162.4h220" stroke="#3a414a" fill="none"/><use xlink:href="#N" transform="matrix(1,0,0,1,738,-192) translate(44.099999999999994 14.6)"/><use xlink:href="#O" transform="matrix(1,0,0,1,742,-154.4) translate(0 27.1)"/><path d="M540.5 92.2l-.08 1-.24.98-.4.94-.52.87-.66.77-.78.66-.87.53-.94.4-1 .24-134.06.07v-1l133.94-.07.82-.2.8-.33.73-.45.66-.56.55-.66.45-.73.33-.8.2-.84.07-.88.02-10.44h1zm188.52-55.53h-183l-.88.07-.84.2-.8.33-.73.45-.66.56-.55.65-.45.74-.33.8-.2.82-.02 19.07h-1l.02-19.2.25-1 .4-.96.52-.86.66-.77.78-.66.87-.53.94-.4.98-.23 1-.07h183.04z" stroke="#3a414a" stroke-width=".05" fill="#3a414a"/><path d="M729.52 36.67h-.5v-1h.5z" fill="#3a414a"/><path d="M729.55 36.7h-.57v-1.06h.57zm-.52-1v.94h.47v-.95z" stroke="#3a414a" stroke-width=".05" fill="#3a414a"/><path d="M400.95 98.67h-.5v-1h.5z" fill="#3a414a"/><path d="M400.98 98.7h-.56v-1.06h.56zm-.52-1v.94h.47v-.95z" stroke="#3a414a" stroke-width=".05" fill="#3a414a"/><use xlink:href="#P" transform="matrix(1,0,0,1,480.7901234567901,60.37387080370554) translate(0 14.222222222222223)"/><use xlink:href="#b" transform="matrix(1,0,0,1,702.0208617176164,10.566124040227635) translate(0 14.4)"/><use xlink:href="#c" transform="matrix(1,0,0,1,403.242591557054,102.16985324455416) translate(0 14.4)"/><path d="M590.5 133.68l-.08 1-.24 1-.4.94-.52.87-.66.76-.78.66-.87.54-.94.4-1 .23-184.02.06v-1l183.9-.07.82-.2.8-.34.73-.45.66-.55.55-.65.45-.74.33-.8.2-.84.07-.88.02-10.1h1zm138.55-50H596.02l-.88.06-.84.2-.8.33-.73.45-.66.56-.55.65-.45.74-.33.8-.2.82-.02 13.9h-1l.02-14.03.25-1 .4-.96.52-.86.66-.77.78-.66.87-.53.94-.4.98-.23 1-.07h133.07z" stroke="#3a414a" stroke-width=".05" fill="#3a414a"/><path d="M729.55 83.67h-.5v-1h.5z" fill="#3a414a"/><path d="M729.58 83.7h-.56v-1.06h.56zm-.5-1v.94h.45v-.95z" stroke="#3a414a" stroke-width=".05" fill="#3a414a"/><path d="M401 140.16h-.5l-.02-1h.52z" fill="#3a414a"/><path d="M401.02 140.2h-.56v-1.06h.56zm-.5-1v.94h.45v-.95z" stroke="#3a414a" stroke-width=".05" fill="#3a414a"/><use xlink:href="#p" transform="matrix(1,0,0,1,514.0740740740741,102.20365865359892) translate(0 14.222222222222223)"/><use xlink:href="#b" transform="matrix(1,0,0,1,702.0533652595799,57.566101561913925) translate(0 14.4)"/><use xlink:href="#c" transform="matrix(1,0,0,1,402.2185702049675,143.66444166060327) translate(0 14.4)"/><path d="M990.96 474.02l-.08 1-.23 1-.4.93-.53.87-.66.78-.78.66-.87.53-.93.38-1 .25-44.5.07v-1l44.37-.07.82-.2.8-.33.74-.45.65-.56.56-.67.46-.73.33-.8.2-.84.06-.88-.02-118.52h1zm-5.48-415.44l1 .24.93.4.88.52.78.66.66.78.54.87.4.94.23 1 .04 270.12h-1l-.05-270-.2-.82-.34-.8-.45-.73-.55-.66-.65-.55-.74-.45-.8-.33-.84-.2-.88-.07h-33.48v-1h33.52z" stroke="#3a414a" stroke-width=".05" fill="#3a414a"/><path d="M950.98 59.5h-.52v-1h.52z" fill="#3a414a"/><path d="M951 59.52h-.56v-1.05h.56zm-.5-1v.95h.45v-.95z" stroke="#3a414a" stroke-width=".05" fill="#3a414a"/><path d="M940.98 480.5h-.52v-1h.52z" fill="#3a414a"/><path d="M941 480.52h-.56v-1.04h.56zm-.5-1v.96h.45v-.96z" stroke="#3a414a" stroke-width=".05" fill="#3a414a"/><use xlink:href="#q" transform="matrix(1,0,0,1,926.8584089001316,334.1231368931341) translate(0 14.222222222222223)"/><use xlink:href="#c" transform="matrix(1,0,0,1,950.4633471717366,63) translate(0 14.4)"/><use xlink:href="#c" transform="matrix(1,0,0,1,940.4632555915928,483.99999999999994) translate(0 14.4)"/><path d="M315.32-149.5H255.1l-.88.07-.84.2-.8.33-.73.45-.66.56-.57.67-.45.73-.33.8-.2.82-.07 223.94h-1l.08-224.06.24-1 .4-.95.52-.87.67-.78.76-.66.87-.53.94-.38 1-.24 1-.08h60.25zm413.72 0h-295.3v-1h295.3z" stroke="#3a414a" stroke-width=".05" fill="#3a414a"/><path d="M729.54-149.5h-.52v-1h.52z" fill="#3a414a"/><path d="M729.56-149.47H729v-1.06h.56zm-.5-1v.94h.45v-.94z" stroke="#3a414a" stroke-width=".05" fill="#3a414a"/><path d="M249.58 79.56h-1v-.52h1z" fill="#3a414a"/><path d="M249.6 79.58h-1.04v-.56h1.05zm-1-.5v.45h.96v-.46z" stroke="#3a414a" stroke-width=".05" fill="#3a414a"/><g><use xlink:href="#P" transform="matrix(1,0,0,1,315.32150253210517,-160.66666666666666) translate(0 14.222222222222223)"/></g><g><use xlink:href="#b" transform="matrix(1,0,0,1,702.0365870898902,-175.60000000000002) translate(0 14.4)"/></g><g><use xlink:href="#c" transform="matrix(1,0,0,1,257.0828949760843,57.75672391534407) translate(0 14.4)"/></g><path d="M1080.5 614.47l-.08 1-.24 1-.4.93-.52.87-.66.78-.78.66-.87.54-.94.4-1 .23-229.02.08-1-.08-1-.24-.93-.4-.87-.52-.78-.65-.66-.78-.53-.87-.38-.94-.25-1-.07-54.5h1l.07 54.37.2.82.33.8.45.73.56.66.67.56.73.45.8.33.84.2.88.07 228.86-.08.82-.2.8-.32.73-.45.66-.56.55-.66.45-.74.33-.8.2-.83.07-.87V415.87h1zm0-219.94h-1v-504.07h1z" stroke="#3a414a" stroke-width=".05" fill="#3a414a"/><path d="M1080.5-109.52h-1v-.52h1z" fill="#3a414a"/><path d="M1080.53-109.5h-1.06v-.56h1.06zm-1-.5v.45h.94v-.46z" stroke="#3a414a" stroke-width=".05" fill="#3a414a"/><path d="M840.5 560.98h-1v-.52h1z" fill="#3a414a"/><path d="M840.52 561h-1.04v-.56h1.04zm-1-.5v.45h.96v-.46z" stroke="#3a414a" stroke-width=".05" fill="#3a414a"/><g><use xlink:href="#Q" transform="matrix(1,0,0,1,1052.3950617283951,394.5319649206935) translate(0 14.222222222222223)"/></g><g><use xlink:href="#b" transform="matrix(1,0,0,1,1045,-109.83674440840709) translate(0 14.4)"/></g><g><use xlink:href="#c" transform="matrix(1,0,0,1,822,560.663206233721) translate(0 14.4)"/></g><defs><path fill="#333" d="M110-194c64 0 96 36 96 99 0 64-35 99-97 99-61 0-95-36-95-99 0-62 34-99 96-99zm-1 164c35 0 45-28 45-65 0-40-10-65-43-65-34 0-45 26-45 65 0 36 10 65 43 65" id="R"/><path fill="#333" d="M121-226c-27-7-43 5-38 36h38v33H83V0H34v-157H6v-33h28c-9-59 32-81 87-68v32" id="S"/><g id="a"><use transform="matrix(0.04938271604938272,0,0,0.04938271604938272,0,0)" xlink:href="#R"/><use transform="matrix(0.04938271604938272,0,0,0.04938271604938272,10.814814814814815,0)" xlink:href="#S"/></g><path d="M101-251c68 0 84 54 84 127C185-50 166 4 99 4S15-52 14-124c-1-75 17-127 87-127zm-1 216c37-5 36-46 36-89s4-89-36-89c-39 0-36 45-36 89 0 43-3 85 36 89" id="T"/><path d="M24 0v-54h51V0H24" id="U"/><path d="M86-200l42-18 12 35-44 11 32 37-32 21-26-44-26 44-32-21 33-37-44-11 12-35 42 18-3-48h38" id="V"/><g id="b"><use transform="matrix(0.05,0,0,0.05,0,0)" xlink:href="#T"/><use transform="matrix(0.05,0,0,0.05,10,0)" xlink:href="#U"/><use transform="matrix(0.05,0,0,0.05,15,0)" xlink:href="#U"/><use transform="matrix(0.05,0,0,0.05,20,0)" xlink:href="#V"/></g><path d="M23 0v-37h61v-169l-59 37v-38l62-41h46v211h57V0H23" id="W"/><use transform="matrix(0.05,0,0,0.05,0,0)" xlink:href="#W" id="c"/><path d="M137-138c1-29-70-34-71-4 15 46 118 7 119 86 1 83-164 76-172 9l43-7c4 19 20 25 44 25 33 8 57-30 24-41C81-84 22-81 20-136c-2-80 154-74 161-7" id="X"/><path d="M190-63c-7 42-38 67-86 67-59 0-84-38-90-98-12-110 154-137 174-36l-49 2c-2-19-15-32-35-32-30 0-35 28-38 64-6 74 65 87 74 30" id="Y"/><path d="M114-157C55-157 80-60 75 0H25v-261h50l-1 109c12-26 28-41 61-42 86-1 58 113 63 194h-50c-7-57 23-157-34-157" id="Z"/><path d="M185-48c-13 30-37 53-82 52C43 2 14-33 14-96s30-98 90-98c62 0 83 45 84 108H66c0 31 8 55 39 56 18 0 30-7 34-22zm-45-69c5-46-57-63-70-21-2 6-4 13-4 21h74" id="aa"/><path d="M220-157c-53 9-28 100-34 157h-49v-107c1-27-5-49-29-50C55-147 81-57 75 0H25l-1-190h47c2 12-1 28 3 38 10-53 101-56 108 0 13-22 24-43 59-42 82 1 51 116 57 194h-49v-107c-1-25-5-48-29-50" id="ab"/><path d="M133-34C117-15 103 5 69 4 32 3 11-16 11-54c-1-60 55-63 116-61 1-26-3-47-28-47-18 1-26 9-28 27l-52-2c7-38 36-58 82-57s74 22 75 68l1 82c-1 14 12 18 25 15v27c-30 8-71 5-69-32zm-48 3c29 0 43-24 42-57-32 0-66-3-65 30 0 17 8 27 23 27" id="ac"/><path d="M35-132v-50h50v50H35zM35 0v-49h50V0H35" id="ad"/><path d="M24-248c93 1 206-16 204 79-1 75-69 88-152 82V0H24v-248zm52 121c47 0 100 7 100-41 0-47-54-39-100-39v80" id="ae"/><path d="M135-150c-39-12-60 13-60 57V0H25l-1-190h47c2 13-1 29 3 40 6-28 27-53 61-41v41" id="af"/><path d="M110-194c64 0 96 36 96 99 0 64-35 99-97 99-61 0-95-36-95-99 0-62 34-99 96-99zm-1 164c35 0 45-28 45-65 0-40-10-65-43-65-34 0-45 26-45 65 0 36 10 65 43 65" id="ag"/><path d="M135-194c87-1 58 113 63 194h-50c-7-57 23-157-34-157-59 0-34 97-39 157H25l-1-190h47c2 12-1 28 3 38 12-26 28-41 61-42" id="ah"/><g id="d"><use transform="matrix(0.04999999999999998,0,0,0.04999999999999998,0,0)" xlink:href="#X"/><use transform="matrix(0.04999999999999998,0,0,0.04999999999999998,9.999999999999996,0)" xlink:href="#Y"/><use transform="matrix(0.04999999999999998,0,0,0.04999999999999998,19.999999999999993,0)" xlink:href="#Z"/><use transform="matrix(0.04999999999999998,0,0,0.04999999999999998,30.94999999999999,0)" xlink:href="#aa"/><use transform="matrix(0.04999999999999998,0,0,0.04999999999999998,40.94999999999999,0)" xlink:href="#ab"/><use transform="matrix(0.04999999999999998,0,0,0.04999999999999998,56.94999999999998,0)" xlink:href="#ac"/><use transform="matrix(0.04999999999999998,0,0,0.04999999999999998,66.94999999999997,0)" xlink:href="#ad"/><use transform="matrix(0.04999999999999998,0,0,0.04999999999999998,72.89999999999998,0)" xlink:href="#ae"/><use transform="matrix(0.04999999999999998,0,0,0.04999999999999998,84.89999999999998,0)" xlink:href="#aa"/><use transform="matrix(0.04999999999999998,0,0,0.04999999999999998,94.89999999999998,0)" xlink:href="#af"/><use transform="matrix(0.04999999999999998,0,0,0.04999999999999998,101.89999999999998,0)" xlink:href="#X"/><use transform="matrix(0.04999999999999998,0,0,0.04999999999999998,111.89999999999998,0)" xlink:href="#ag"/><use transform="matrix(0.04999999999999998,0,0,0.04999999999999998,122.84999999999995,0)" xlink:href="#ah"/></g><path d="M135-143c-3-34-86-38-87 0 15 53 115 12 119 90S17 21 10-45l28-5c4 36 97 45 98 0-10-56-113-15-118-90-4-57 82-63 122-42 12 7 21 19 24 35" id="ai"/><path d="M96-169c-40 0-48 33-48 73s9 75 48 75c24 0 41-14 43-38l32 2c-6 37-31 61-74 61-59 0-76-41-82-99-10-93 101-131 147-64 4 7 5 14 7 22l-32 3c-4-21-16-35-41-35" id="aj"/><path d="M106-169C34-169 62-67 57 0H25v-261h32l-1 103c12-21 28-36 61-36 89 0 53 116 60 194h-32v-121c2-32-8-49-39-48" id="ak"/><path d="M100-194c63 0 86 42 84 106H49c0 40 14 67 53 68 26 1 43-12 49-29l28 8c-11 28-37 45-77 45C44 4 14-33 15-96c1-61 26-98 85-98zm52 81c6-60-76-77-97-28-3 7-6 17-6 28h103" id="al"/><path d="M210-169c-67 3-38 105-44 169h-31v-121c0-29-5-50-35-48C34-165 62-65 56 0H25l-1-190h30c1 10-1 24 2 32 10-44 99-50 107 0 11-21 27-35 58-36 85-2 47 119 55 194h-31v-121c0-29-5-49-35-48" id="am"/><path d="M141-36C126-15 110 5 73 4 37 3 15-17 15-53c-1-64 63-63 125-63 3-35-9-54-41-54-24 1-41 7-42 31l-33-3c5-37 33-52 76-52 45 0 72 20 72 64v82c-1 20 7 32 28 27v20c-31 9-61-2-59-35zM48-53c0 20 12 33 32 33 41-3 63-29 60-74-43 2-92-5-92 41" id="an"/><path d="M33-154v-36h34v36H33zM33 0v-36h34V0H33" id="ao"/><path d="M177-190C167-65 218 103 67 71c-23-6-38-20-44-43l32-5c15 47 100 32 89-28v-30C133-14 115 1 83 1 29 1 15-40 15-95c0-56 16-97 71-98 29-1 48 16 59 35 1-10 0-23 2-32h30zM94-22c36 0 50-32 50-73 0-42-14-75-50-75-39 0-46 34-46 75s6 73 46 73" id="ap"/><path d="M24-231v-30h32v30H24zM24 0v-190h32V0H24" id="aq"/><path d="M108 0H70L1-190h34L89-25l56-165h34" id="ar"/><path d="M117-194c89-4 53 116 60 194h-32v-121c0-31-8-49-39-48C34-167 62-67 57 0H25l-1-190h30c1 10-1 24 2 32 11-22 29-35 61-36" id="as"/><path d="M190 0L58-211 59 0H30v-248h39L202-35l-2-213h31V0h-41" id="at"/><g id="e"><use transform="matrix(0.04999999999999998,0,0,0.04999999999999998,0,0)" xlink:href="#ai"/><use transform="matrix(0.04999999999999998,0,0,0.04999999999999998,8.999999999999996,0)" xlink:href="#aj"/><use transform="matrix(0.04999999999999998,0,0,0.04999999999999998,17.999999999999993,0)" xlink:href="#ak"/><use transform="matrix(0.04999999999999998,0,0,0.04999999999999998,27.99999999999999,0)" xlink:href="#al"/><use transform="matrix(0.04999999999999998,0,0,0.04999999999999998,37.999999999999986,0)" xlink:href="#am"/><use transform="matrix(0.04999999999999998,0,0,0.04999999999999998,52.94999999999998,0)" xlink:href="#an"/><use transform="matrix(0.04999999999999998,0,0,0.04999999999999998,62.949999999999974,0)" xlink:href="#ao"/><use transform="matrix(0.04999999999999998,0,0,0.04999999999999998,67.94999999999997,0)" xlink:href="#ap"/><use transform="matrix(0.04999999999999998,0,0,0.04999999999999998,77.94999999999997,0)" xlink:href="#aq"/><use transform="matrix(0.04999999999999998,0,0,0.04999999999999998,81.89999999999998,0)" xlink:href="#ar"/><use transform="matrix(0.04999999999999998,0,0,0.04999999999999998,90.89999999999998,0)" xlink:href="#al"/><use transform="matrix(0.04999999999999998,0,0,0.04999999999999998,100.89999999999998,0)" xlink:href="#as"/><use transform="matrix(0.04999999999999998,0,0,0.04999999999999998,110.89999999999998,0)" xlink:href="#at"/><use transform="matrix(0.04999999999999998,0,0,0.04999999999999998,123.84999999999995,0)" xlink:href="#an"/><use transform="matrix(0.04999999999999998,0,0,0.04999999999999998,133.84999999999997,0)" xlink:href="#am"/><use transform="matrix(0.04999999999999998,0,0,0.04999999999999998,148.79999999999995,0)" xlink:href="#al"/></g><path d="M101-234c-31-9-42 10-38 44h38v23H63V0H32v-167H5v-23h27c-7-52 17-82 69-68v24" id="au"/><path d="M24 0v-261h32V0H24" id="av"/><path d="M179-190L93 31C79 59 56 82 12 73V49c39 6 53-20 64-50L1-190h34L92-34l54-156h33" id="aw"/><g id="f"><use transform="matrix(0.04999999999999998,0,0,0.04999999999999998,0,0)" xlink:href="#ai"/><use transform="matrix(0.04999999999999998,0,0,0.04999999999999998,8.999999999999996,0)" xlink:href="#aj"/><use transform="matrix(0.04999999999999998,0,0,0.04999999999999998,17.999999999999993,0)" xlink:href="#ak"/><use transform="matrix(0.04999999999999998,0,0,0.04999999999999998,27.99999999999999,0)" xlink:href="#al"/><use transform="matrix(0.04999999999999998,0,0,0.04999999999999998,37.999999999999986,0)" xlink:href="#am"/><use transform="matrix(0.04999999999999998,0,0,0.04999999999999998,52.94999999999998,0)" xlink:href="#an"/><use transform="matrix(0.04999999999999998,0,0,0.04999999999999998,62.949999999999974,0)" xlink:href="#ao"/><use transform="matrix(0.04999999999999998,0,0,0.04999999999999998,67.94999999999997,0)" xlink:href="#au"/><use transform="matrix(0.04999999999999998,0,0,0.04999999999999998,72.94999999999997,0)" xlink:href="#an"/><use transform="matrix(0.04999999999999998,0,0,0.04999999999999998,82.94999999999997,0)" xlink:href="#am"/><use transform="matrix(0.04999999999999998,0,0,0.04999999999999998,97.89999999999996,0)" xlink:href="#aq"/><use transform="matrix(0.04999999999999998,0,0,0.04999999999999998,101.84999999999997,0)" xlink:href="#av"/><use transform="matrix(0.04999999999999998,0,0,0.04999999999999998,105.79999999999997,0)" xlink:href="#aw"/><use transform="matrix(0.04999999999999998,0,0,0.04999999999999998,114.79999999999995,0)" xlink:href="#at"/><use transform="matrix(0.04999999999999998,0,0,0.04999999999999998,127.74999999999997,0)" xlink:href="#an"/><use transform="matrix(0.04999999999999998,0,0,0.04999999999999998,137.74999999999997,0)" xlink:href="#am"/><use transform="matrix(0.04999999999999998,0,0,0.04999999999999998,152.69999999999996,0)" xlink:href="#al"/></g><g id="g"><use transform="matrix(0.04999999999999998,0,0,0.04999999999999998,0,0)" xlink:href="#ai"/><use transform="matrix(0.04999999999999998,0,0,0.04999999999999998,8.999999999999996,0)" xlink:href="#aj"/><use transform="matrix(0.04999999999999998,0,0,0.04999999999999998,17.999999999999993,0)" xlink:href="#ak"/><use transform="matrix(0.04999999999999998,0,0,0.04999999999999998,27.99999999999999,0)" xlink:href="#al"/><use transform="matrix(0.04999999999999998,0,0,0.04999999999999998,37.999999999999986,0)" xlink:href="#am"/><use transform="matrix(0.04999999999999998,0,0,0.04999999999999998,52.94999999999998,0)" xlink:href="#an"/><use transform="matrix(0.04999999999999998,0,0,0.04999999999999998,62.949999999999974,0)" xlink:href="#ao"/><use transform="matrix(0.04999999999999998,0,0,0.04999999999999998,67.94999999999997,0)" xlink:href="#al"/><use transform="matrix(0.04999999999999998,0,0,0.04999999999999998,77.94999999999997,0)" xlink:href="#am"/><use transform="matrix(0.04999999999999998,0,0,0.04999999999999998,92.89999999999996,0)" xlink:href="#an"/><use transform="matrix(0.04999999999999998,0,0,0.04999999999999998,102.89999999999996,0)" xlink:href="#aq"/><use transform="matrix(0.04999999999999998,0,0,0.04999999999999998,106.84999999999997,0)" xlink:href="#av"/></g><path d="M59-47c-2 24 18 29 38 22v24C64 9 27 4 27-40v-127H5v-23h24l9-43h21v43h35v23H59v120" id="ax"/><path d="M115-194c55 1 70 41 70 98S169 2 115 4C84 4 66-9 55-30l1 105H24l-1-265h31l2 30c10-21 28-34 59-34zm-8 174c40 0 45-34 45-75s-6-73-45-74c-42 0-51 32-51 76 0 43 10 73 51 73" id="ay"/><path d="M100-194c62-1 85 37 85 99 1 63-27 99-86 99S16-35 15-95c0-66 28-99 85-99zM99-20c44 1 53-31 53-75 0-43-8-75-51-75s-53 32-53 75 10 74 51 75" id="az"/><g id="h"><use transform="matrix(0.04999999999999998,0,0,0.04999999999999998,0,0)" xlink:href="#ai"/><use transform="matrix(0.04999999999999998,0,0,0.04999999999999998,8.999999999999996,0)" xlink:href="#aj"/><use transform="matrix(0.04999999999999998,0,0,0.04999999999999998,17.999999999999993,0)" xlink:href="#ak"/><use transform="matrix(0.04999999999999998,0,0,0.04999999999999998,27.99999999999999,0)" xlink:href="#al"/><use transform="matrix(0.04999999999999998,0,0,0.04999999999999998,37.999999999999986,0)" xlink:href="#am"/><use transform="matrix(0.04999999999999998,0,0,0.04999999999999998,52.94999999999998,0)" xlink:href="#an"/><use transform="matrix(0.04999999999999998,0,0,0.04999999999999998,62.949999999999974,0)" xlink:href="#ao"/><use transform="matrix(0.04999999999999998,0,0,0.04999999999999998,67.94999999999997,0)" xlink:href="#ax"/><use transform="matrix(0.04999999999999998,0,0,0.04999999999999998,72.94999999999997,0)" xlink:href="#al"/><use transform="matrix(0.04999999999999998,0,0,0.04999999999999998,82.94999999999997,0)" xlink:href="#av"/><use transform="matrix(0.04999999999999998,0,0,0.04999999999999998,86.89999999999998,0)" xlink:href="#al"/><use transform="matrix(0.04999999999999998,0,0,0.04999999999999998,96.89999999999998,0)" xlink:href="#ay"/><use transform="matrix(0.04999999999999998,0,0,0.04999999999999998,106.89999999999998,0)" xlink:href="#ak"/><use transform="matrix(0.04999999999999998,0,0,0.04999999999999998,116.89999999999998,0)" xlink:href="#az"/><use transform="matrix(0.04999999999999998,0,0,0.04999999999999998,126.89999999999998,0)" xlink:href="#as"/><use transform="matrix(0.04999999999999998,0,0,0.04999999999999998,136.89999999999998,0)" xlink:href="#al"/></g><path d="M115-3C79 11 28 4 28-45v-112H4v-33h27l15-45h31v45h36v33H77v99c-1 23 16 31 38 25v30" id="aA"/><path d="M25-224v-37h50v37H25zM25 0v-190h50V0H25" id="aB"/><path d="M135-194c53 0 70 44 70 98 0 56-19 98-73 100-31 1-45-17-59-34 3 33 2 69 2 105H25l-1-265h48c2 10 0 23 3 31 11-24 29-35 60-35zM114-30c33 0 39-31 40-66 0-38-9-64-40-64-56 0-55 130 0 130" id="aC"/><g id="i"><use transform="matrix(0.05,0,0,0.05,0,0)" xlink:href="#X"/><use transform="matrix(0.05,0,0,0.05,10,0)" xlink:href="#Y"/><use transform="matrix(0.05,0,0,0.05,20,0)" xlink:href="#Z"/><use transform="matrix(0.05,0,0,0.05,30.950000000000003,0)" xlink:href="#aa"/><use transform="matrix(0.05,0,0,0.05,40.95,0)" xlink:href="#ab"/><use transform="matrix(0.05,0,0,0.05,56.95,0)" xlink:href="#ac"/><use transform="matrix(0.05,0,0,0.05,66.95,0)" xlink:href="#ad"/><use transform="matrix(0.05,0,0,0.05,72.9,0)" xlink:href="#ae"/><use transform="matrix(0.05,0,0,0.05,84.9,0)" xlink:href="#ac"/><use transform="matrix(0.05,0,0,0.05,94.9,0)" xlink:href="#af"/><use transform="matrix(0.05,0,0,0.05,101.9,0)" xlink:href="#aA"/><use transform="matrix(0.05,0,0,0.05,107.85000000000001,0)" xlink:href="#aB"/><use transform="matrix(0.05,0,0,0.05,112.85000000000001,0)" xlink:href="#Y"/><use transform="matrix(0.05,0,0,0.05,122.85000000000001,0)" xlink:href="#aB"/><use transform="matrix(0.05,0,0,0.05,127.85000000000001,0)" xlink:href="#aC"/><use transform="matrix(0.05,0,0,0.05,138.8,0)" xlink:href="#ac"/><use transform="matrix(0.05,0,0,0.05,148.8,0)" xlink:href="#ah"/><use transform="matrix(0.05,0,0,0.05,159.75,0)" xlink:href="#aA"/></g><path d="M140-251c80 0 125 45 125 126S219 4 139 4C58 4 15-44 15-125s44-126 125-126zm-1 214c52 0 73-35 73-88 0-50-21-86-72-86-52 0-73 35-73 86s22 88 72 88" id="aD"/><path d="M195-6C206 82 75 100 31 46c-4-6-6-13-8-21l49-6c3 16 16 24 34 25 40 0 42-37 40-79-11 22-30 35-61 35-53 0-70-43-70-97 0-56 18-96 73-97 30 0 46 14 59 34l2-30h47zm-90-29c32 0 41-27 41-63 0-35-9-62-40-62-32 0-39 29-40 63 0 36 9 62 39 62" id="aE"/><path d="M12 0v-35l95-120H19v-35h142v35L67-36h103V0H12" id="aF"/><g id="j"><use transform="matrix(0.05,0,0,0.05,0,0)" xlink:href="#X"/><use transform="matrix(0.05,0,0,0.05,10,0)" xlink:href="#Y"/><use transform="matrix(0.05,0,0,0.05,20,0)" xlink:href="#Z"/><use transform="matrix(0.05,0,0,0.05,30.950000000000003,0)" xlink:href="#aa"/><use transform="matrix(0.05,0,0,0.05,40.95,0)" xlink:href="#ab"/><use transform="matrix(0.05,0,0,0.05,56.95,0)" xlink:href="#ac"/><use transform="matrix(0.05,0,0,0.05,66.95,0)" xlink:href="#ad"/><use transform="matrix(0.05,0,0,0.05,72.9,0)" xlink:href="#aD"/><use transform="matrix(0.05,0,0,0.05,86.9,0)" xlink:href="#af"/><use transform="matrix(0.05,0,0,0.05,93.9,0)" xlink:href="#aE"/><use transform="matrix(0.05,0,0,0.05,104.85000000000001,0)" xlink:href="#ac"/><use transform="matrix(0.05,0,0,0.05,114.85000000000001,0)" xlink:href="#ah"/><use transform="matrix(0.05,0,0,0.05,125.80000000000001,0)" xlink:href="#aB"/><use transform="matrix(0.05,0,0,0.05,130.8,0)" xlink:href="#aF"/><use transform="matrix(0.05,0,0,0.05,139.8,0)" xlink:href="#ac"/><use transform="matrix(0.05,0,0,0.05,149.8,0)" xlink:href="#aA"/><use transform="matrix(0.05,0,0,0.05,155.75,0)" xlink:href="#aB"/><use transform="matrix(0.05,0,0,0.05,160.75,0)" xlink:href="#ag"/><use transform="matrix(0.05,0,0,0.05,171.7,0)" xlink:href="#ah"/></g><g id="k"><use transform="matrix(0.05,0,0,0.05,0,0)" xlink:href="#ai"/><use transform="matrix(0.05,0,0,0.05,9,0)" xlink:href="#aj"/><use transform="matrix(0.05,0,0,0.05,18,0)" xlink:href="#ak"/><use transform="matrix(0.05,0,0,0.05,28,0)" xlink:href="#al"/><use transform="matrix(0.05,0,0,0.05,38,0)" xlink:href="#am"/><use transform="matrix(0.05,0,0,0.05,52.95,0)" xlink:href="#an"/><use transform="matrix(0.05,0,0,0.05,62.95,0)" xlink:href="#ao"/><use transform="matrix(0.05,0,0,0.05,67.95,0)" xlink:href="#av"/><use transform="matrix(0.05,0,0,0.05,71.9,0)" xlink:href="#al"/><use transform="matrix(0.05,0,0,0.05,81.9,0)" xlink:href="#ap"/><use transform="matrix(0.05,0,0,0.05,91.9,0)" xlink:href="#an"/><use transform="matrix(0.05,0,0,0.05,101.9,0)" xlink:href="#av"/><use transform="matrix(0.05,0,0,0.05,105.85000000000001,0)" xlink:href="#at"/><use transform="matrix(0.05,0,0,0.05,118.80000000000001,0)" xlink:href="#an"/><use transform="matrix(0.05,0,0,0.05,128.8,0)" xlink:href="#am"/><use transform="matrix(0.05,0,0,0.05,143.75,0)" xlink:href="#al"/></g><path d="M85-194c31 0 48 13 60 33l-1-100h32l1 261h-30c-2-10 0-23-3-31C134-8 116 4 85 4 32 4 16-35 15-94c0-66 23-100 70-100zm9 24c-40 0-46 34-46 75 0 40 6 74 45 74 42 0 51-32 51-76 0-42-9-74-50-73" id="aG"/><path d="M114-163C36-179 61-72 57 0H25l-1-190h30c1 12-1 29 2 39 6-27 23-49 58-41v29" id="aH"/><g id="l"><use transform="matrix(0.05,0,0,0.05,0,0)" xlink:href="#ai"/><use transform="matrix(0.05,0,0,0.05,9,0)" xlink:href="#aj"/><use transform="matrix(0.05,0,0,0.05,18,0)" xlink:href="#ak"/><use transform="matrix(0.05,0,0,0.05,28,0)" xlink:href="#al"/><use transform="matrix(0.05,0,0,0.05,38,0)" xlink:href="#am"/><use transform="matrix(0.05,0,0,0.05,52.95,0)" xlink:href="#an"/><use transform="matrix(0.05,0,0,0.05,62.95,0)" xlink:href="#ao"/><use transform="matrix(0.05,0,0,0.05,67.95,0)" xlink:href="#an"/><use transform="matrix(0.05,0,0,0.05,77.95,0)" xlink:href="#aG"/><use transform="matrix(0.05,0,0,0.05,87.95,0)" xlink:href="#aG"/><use transform="matrix(0.05,0,0,0.05,97.95,0)" xlink:href="#aH"/><use transform="matrix(0.05,0,0,0.05,103.9,0)" xlink:href="#al"/><use transform="matrix(0.05,0,0,0.05,113.9,0)" xlink:href="#ai"/><use transform="matrix(0.05,0,0,0.05,122.9,0)" xlink:href="#ai"/></g><g id="m"><use transform="matrix(0.05,0,0,0.05,0,0)" xlink:href="#ai"/><use transform="matrix(0.05,0,0,0.05,9,0)" xlink:href="#aj"/><use transform="matrix(0.05,0,0,0.05,18,0)" xlink:href="#ak"/><use transform="matrix(0.05,0,0,0.05,28,0)" xlink:href="#al"/><use transform="matrix(0.05,0,0,0.05,38,0)" xlink:href="#am"/><use transform="matrix(0.05,0,0,0.05,52.95,0)" xlink:href="#an"/><use transform="matrix(0.05,0,0,0.05,62.95,0)" xlink:href="#ao"/><use transform="matrix(0.05,0,0,0.05,67.95,0)" xlink:href="#al"/><use transform="matrix(0.05,0,0,0.05,77.95,0)" xlink:href="#am"/><use transform="matrix(0.05,0,0,0.05,92.9,0)" xlink:href="#an"/><use transform="matrix(0.05,0,0,0.05,102.9,0)" xlink:href="#aq"/><use transform="matrix(0.05,0,0,0.05,106.85000000000001,0)" xlink:href="#av"/></g><g id="n"><use transform="matrix(0.05,0,0,0.05,0,0)" xlink:href="#ai"/><use transform="matrix(0.05,0,0,0.05,9,0)" xlink:href="#aj"/><use transform="matrix(0.05,0,0,0.05,18,0)" xlink:href="#ak"/><use transform="matrix(0.05,0,0,0.05,28,0)" xlink:href="#al"/><use transform="matrix(0.05,0,0,0.05,38,0)" xlink:href="#am"/><use transform="matrix(0.05,0,0,0.05,52.95,0)" xlink:href="#an"/><use transform="matrix(0.05,0,0,0.05,62.95,0)" xlink:href="#ao"/><use transform="matrix(0.05,0,0,0.05,67.95,0)" xlink:href="#ax"/><use transform="matrix(0.05,0,0,0.05,72.95,0)" xlink:href="#al"/><use transform="matrix(0.05,0,0,0.05,82.95,0)" xlink:href="#av"/><use transform="matrix(0.05,0,0,0.05,86.9,0)" xlink:href="#al"/><use transform="matrix(0.05,0,0,0.05,96.9,0)" xlink:href="#ay"/><use transform="matrix(0.05,0,0,0.05,106.9,0)" xlink:href="#ak"/><use transform="matrix(0.05,0,0,0.05,116.9,0)" xlink:href="#az"/><use transform="matrix(0.05,0,0,0.05,126.9,0)" xlink:href="#as"/><use transform="matrix(0.05,0,0,0.05,136.9,0)" xlink:href="#al"/></g><path fill="#333" d="M137-138c1-29-70-34-71-4 15 46 118 7 119 86 1 83-164 76-172 9l43-7c4 19 20 25 44 25 33 8 57-30 24-41C81-84 22-81 20-136c-2-80 154-74 161-7" id="aI"/><path fill="#333" d="M190-63c-7 42-38 67-86 67-59 0-84-38-90-98-12-110 154-137 174-36l-49 2c-2-19-15-32-35-32-30 0-35 28-38 64-6 74 65 87 74 30" id="aJ"/><path fill="#333" d="M114-157C55-157 80-60 75 0H25v-261h50l-1 109c12-26 28-41 61-42 86-1 58 113 63 194h-50c-7-57 23-157-34-157" id="aK"/><path fill="#333" d="M185-48c-13 30-37 53-82 52C43 2 14-33 14-96s30-98 90-98c62 0 83 45 84 108H66c0 31 8 55 39 56 18 0 30-7 34-22zm-45-69c5-46-57-63-70-21-2 6-4 13-4 21h74" id="aL"/><path fill="#333" d="M220-157c-53 9-28 100-34 157h-49v-107c1-27-5-49-29-50C55-147 81-57 75 0H25l-1-190h47c2 12-1 28 3 38 10-53 101-56 108 0 13-22 24-43 59-42 82 1 51 116 57 194h-49v-107c-1-25-5-48-29-50" id="aM"/><path fill="#333" d="M133-34C117-15 103 5 69 4 32 3 11-16 11-54c-1-60 55-63 116-61 1-26-3-47-28-47-18 1-26 9-28 27l-52-2c7-38 36-58 82-57s74 22 75 68l1 82c-1 14 12 18 25 15v27c-30 8-71 5-69-32zm-48 3c29 0 43-24 42-57-32 0-66-3-65 30 0 17 8 27 23 27" id="aN"/><path fill="#333" d="M35-132v-50h50v50H35zM35 0v-49h50V0H35" id="aO"/><path fill="#333" d="M135-194c53 0 70 44 70 98 0 56-19 98-73 100-31 1-45-17-59-34 3 33 2 69 2 105H25l-1-265h48c2 10 0 23 3 31 11-24 29-35 60-35zM114-30c33 0 39-31 40-66 0-38-9-64-40-64-56 0-55 130 0 130" id="aP"/><path fill="#333" d="M135-150c-39-12-60 13-60 57V0H25l-1-190h47c2 13-1 29 3 40 6-28 27-53 61-41v41" id="aQ"/><path fill="#333" d="M128 0H69L1-190h53L99-40l48-150h52" id="aR"/><path fill="#333" d="M25-224v-37h50v37H25zM25 0v-190h50V0H25" id="aS"/><path fill="#333" d="M88-194c31-1 46 15 58 34l-1-101h50l1 261h-48c-2-10 0-23-3-31C134-8 116 4 84 4 32 4 16-41 15-95c0-56 19-97 73-99zm17 164c33 0 40-30 41-66 1-37-9-64-41-64s-38 30-39 65c0 43 13 65 39 65" id="aT"/><g id="o"><use transform="matrix(0.04938271604938272,0,0,0.04938271604938272,0,0)" xlink:href="#aI"/><use transform="matrix(0.04938271604938272,0,0,0.04938271604938272,9.876543209876544,0)" xlink:href="#aJ"/><use transform="matrix(0.04938271604938272,0,0,0.04938271604938272,19.75308641975309,0)" xlink:href="#aK"/><use transform="matrix(0.04938271604938272,0,0,0.04938271604938272,30.567901234567906,0)" xlink:href="#aL"/><use transform="matrix(0.04938271604938272,0,0,0.04938271604938272,40.44444444444445,0)" xlink:href="#aM"/><use transform="matrix(0.04938271604938272,0,0,0.04938271604938272,56.24691358024692,0)" xlink:href="#aN"/><use transform="matrix(0.04938271604938272,0,0,0.04938271604938272,66.12345679012347,0)" xlink:href="#aO"/><use transform="matrix(0.04938271604938272,0,0,0.04938271604938272,72.00000000000001,0)" xlink:href="#aP"/><use transform="matrix(0.04938271604938272,0,0,0.04938271604938272,82.81481481481482,0)" xlink:href="#aQ"/><use transform="matrix(0.04938271604938272,0,0,0.04938271604938272,89.7283950617284,0)" xlink:href="#R"/><use transform="matrix(0.04938271604938272,0,0,0.04938271604938272,100.54320987654322,0)" xlink:href="#aR"/><use transform="matrix(0.04938271604938272,0,0,0.04938271604938272,110.41975308641976,0)" xlink:href="#aS"/><use transform="matrix(0.04938271604938272,0,0,0.04938271604938272,115.35802469135804,0)" xlink:href="#aT"/><use transform="matrix(0.04938271604938272,0,0,0.04938271604938272,126.17283950617282,0)" xlink:href="#aL"/><use transform="matrix(0.04938271604938272,0,0,0.04938271604938272,136.04938271604937,0)" xlink:href="#aQ"/></g><path fill="#333" d="M85 4C-2 5 27-109 22-190h50c7 57-23 150 33 157 60-5 35-97 40-157h50l1 190h-47c-2-12 1-28-3-38-12 25-28 42-61 42" id="aU"/><path fill="#333" d="M115-3C79 11 28 4 28-45v-112H4v-33h27l15-45h31v45h36v33H77v99c-1 23 16 31 38 25v30" id="aV"/><g id="p"><use transform="matrix(0.04938271604938272,0,0,0.04938271604938272,0,0)" xlink:href="#aI"/><use transform="matrix(0.04938271604938272,0,0,0.04938271604938272,9.876543209876544,0)" xlink:href="#aJ"/><use transform="matrix(0.04938271604938272,0,0,0.04938271604938272,19.75308641975309,0)" xlink:href="#aK"/><use transform="matrix(0.04938271604938272,0,0,0.04938271604938272,30.567901234567906,0)" xlink:href="#aL"/><use transform="matrix(0.04938271604938272,0,0,0.04938271604938272,40.44444444444445,0)" xlink:href="#aM"/><use transform="matrix(0.04938271604938272,0,0,0.04938271604938272,56.24691358024692,0)" xlink:href="#aN"/><use transform="matrix(0.04938271604938272,0,0,0.04938271604938272,66.12345679012347,0)" xlink:href="#aO"/><use transform="matrix(0.04938271604938272,0,0,0.04938271604938272,72.00000000000001,0)" xlink:href="#aJ"/><use transform="matrix(0.04938271604938272,0,0,0.04938271604938272,81.87654320987656,0)" xlink:href="#aU"/><use transform="matrix(0.04938271604938272,0,0,0.04938271604938272,92.69135802469137,0)" xlink:href="#aI"/><use transform="matrix(0.04938271604938272,0,0,0.04938271604938272,102.56790123456791,0)" xlink:href="#aV"/><use transform="matrix(0.04938271604938272,0,0,0.04938271604938272,108.44444444444446,0)" xlink:href="#R"/><use transform="matrix(0.04938271604938272,0,0,0.04938271604938272,119.25925925925927,0)" xlink:href="#aM"/><use transform="matrix(0.04938271604938272,0,0,0.04938271604938272,135.06172839506175,0)" xlink:href="#aL"/><use transform="matrix(0.04938271604938272,0,0,0.04938271604938272,144.93827160493828,0)" xlink:href="#aQ"/></g><path fill="#333" d="M135-194c52 0 70 43 70 98 0 56-19 99-73 100-30 1-46-15-58-35L72 0H24l1-261h50v104c11-23 29-37 60-37zM114-30c31 0 40-27 40-66 0-37-7-63-39-63s-41 28-41 65c0 36 8 64 40 64" id="aW"/><path fill="#333" d="M147 0L96-86 75-71V0H25v-261h50v150l67-79h53l-66 74L201 0h-54" id="aX"/><g id="q"><use transform="matrix(0.04938271604938272,0,0,0.04938271604938272,0,0)" xlink:href="#aI"/><use transform="matrix(0.04938271604938272,0,0,0.04938271604938272,9.876543209876544,0)" xlink:href="#aJ"/><use transform="matrix(0.04938271604938272,0,0,0.04938271604938272,19.75308641975309,0)" xlink:href="#aK"/><use transform="matrix(0.04938271604938272,0,0,0.04938271604938272,30.567901234567906,0)" xlink:href="#aL"/><use transform="matrix(0.04938271604938272,0,0,0.04938271604938272,40.44444444444445,0)" xlink:href="#aM"/><use transform="matrix(0.04938271604938272,0,0,0.04938271604938272,56.24691358024692,0)" xlink:href="#aN"/><use transform="matrix(0.04938271604938272,0,0,0.04938271604938272,66.12345679012347,0)" xlink:href="#aO"/><use transform="matrix(0.04938271604938272,0,0,0.04938271604938272,72.00000000000001,0)" xlink:href="#aW"/><use transform="matrix(0.04938271604938272,0,0,0.04938271604938272,82.81481481481482,0)" xlink:href="#aQ"/><use transform="matrix(0.04938271604938272,0,0,0.04938271604938272,89.7283950617284,0)" xlink:href="#R"/><use transform="matrix(0.04938271604938272,0,0,0.04938271604938272,100.54320987654322,0)" xlink:href="#aX"/><use transform="matrix(0.04938271604938272,0,0,0.04938271604938272,110.41975308641976,0)" xlink:href="#aL"/><use transform="matrix(0.04938271604938272,0,0,0.04938271604938272,120.2962962962963,0)" xlink:href="#aQ"/></g><path d="M169-182c-1-43-94-46-97-3 18 66 151 10 154 114 3 95-165 93-204 36-6-8-10-19-12-30l50-8c3 46 112 56 116 5-17-69-150-10-154-114-4-87 153-88 188-35 5 8 8 18 10 28" id="aY"/><path d="M121-226c-27-7-43 5-38 36h38v33H83V0H34v-157H6v-33h28c-9-59 32-81 87-68v32" id="aZ"/><g id="r"><use transform="matrix(0.05,0,0,0.05,0,0)" xlink:href="#X"/><use transform="matrix(0.05,0,0,0.05,10,0)" xlink:href="#Y"/><use transform="matrix(0.05,0,0,0.05,20,0)" xlink:href="#Z"/><use transform="matrix(0.05,0,0,0.05,30.950000000000003,0)" xlink:href="#aa"/><use transform="matrix(0.05,0,0,0.05,40.95,0)" xlink:href="#ab"/><use transform="matrix(0.05,0,0,0.05,56.95,0)" xlink:href="#ac"/><use transform="matrix(0.05,0,0,0.05,66.95,0)" xlink:href="#ad"/><use transform="matrix(0.05,0,0,0.05,72.9,0)" xlink:href="#ae"/><use transform="matrix(0.05,0,0,0.05,84.9,0)" xlink:href="#af"/><use transform="matrix(0.05,0,0,0.05,91.9,0)" xlink:href="#aB"/><use transform="matrix(0.05,0,0,0.05,96.9,0)" xlink:href="#Y"/><use transform="matrix(0.05,0,0,0.05,106.9,0)" xlink:href="#aa"/><use transform="matrix(0.05,0,0,0.05,116.9,0)" xlink:href="#aY"/><use transform="matrix(0.05,0,0,0.05,128.9,0)" xlink:href="#aC"/><use transform="matrix(0.05,0,0,0.05,139.85,0)" xlink:href="#aa"/><use transform="matrix(0.05,0,0,0.05,149.85,0)" xlink:href="#Y"/><use transform="matrix(0.05,0,0,0.05,159.85,0)" xlink:href="#aB"/><use transform="matrix(0.05,0,0,0.05,164.85,0)" xlink:href="#aZ"/><use transform="matrix(0.05,0,0,0.05,170.79999999999998,0)" xlink:href="#aB"/><use transform="matrix(0.05,0,0,0.05,175.79999999999998,0)" xlink:href="#Y"/><use transform="matrix(0.05,0,0,0.05,185.79999999999998,0)" xlink:href="#ac"/><use transform="matrix(0.05,0,0,0.05,195.79999999999998,0)" xlink:href="#aA"/><use transform="matrix(0.05,0,0,0.05,201.74999999999997,0)" xlink:href="#aB"/><use transform="matrix(0.05,0,0,0.05,206.74999999999997,0)" xlink:href="#ag"/><use transform="matrix(0.05,0,0,0.05,217.69999999999996,0)" xlink:href="#ah"/></g><g id="s"><use transform="matrix(0.05,0,0,0.05,0,0)" xlink:href="#ai"/><use transform="matrix(0.05,0,0,0.05,9,0)" xlink:href="#aj"/><use transform="matrix(0.05,0,0,0.05,18,0)" xlink:href="#ak"/><use transform="matrix(0.05,0,0,0.05,28,0)" xlink:href="#al"/><use transform="matrix(0.05,0,0,0.05,38,0)" xlink:href="#am"/><use transform="matrix(0.05,0,0,0.05,52.95,0)" xlink:href="#an"/><use transform="matrix(0.05,0,0,0.05,62.95,0)" xlink:href="#ao"/><use transform="matrix(0.05,0,0,0.05,67.95,0)" xlink:href="#ay"/><use transform="matrix(0.05,0,0,0.05,77.95,0)" xlink:href="#aH"/><use transform="matrix(0.05,0,0,0.05,83.9,0)" xlink:href="#aq"/><use transform="matrix(0.05,0,0,0.05,87.85000000000001,0)" xlink:href="#aj"/><use transform="matrix(0.05,0,0,0.05,96.85000000000001,0)" xlink:href="#al"/></g><path d="M212-179c-10-28-35-45-73-45-59 0-87 40-87 99 0 60 29 101 89 101 43 0 62-24 78-52l27 14C228-24 195 4 139 4 59 4 22-46 18-125c-6-104 99-153 187-111 19 9 31 26 39 46" id="ba"/><path d="M84 4C-5 8 30-112 23-190h32v120c0 31 7 50 39 49 72-2 45-101 50-169h31l1 190h-30c-1-10 1-25-2-33-11 22-28 36-60 37" id="bb"/><g id="t"><use transform="matrix(0.05,0,0,0.05,0,0)" xlink:href="#ai"/><use transform="matrix(0.05,0,0,0.05,9,0)" xlink:href="#aj"/><use transform="matrix(0.05,0,0,0.05,18,0)" xlink:href="#ak"/><use transform="matrix(0.05,0,0,0.05,28,0)" xlink:href="#al"/><use transform="matrix(0.05,0,0,0.05,38,0)" xlink:href="#am"/><use transform="matrix(0.05,0,0,0.05,52.95,0)" xlink:href="#an"/><use transform="matrix(0.05,0,0,0.05,62.95,0)" xlink:href="#ao"/><use transform="matrix(0.05,0,0,0.05,67.95,0)" xlink:href="#ay"/><use transform="matrix(0.05,0,0,0.05,77.95,0)" xlink:href="#aH"/><use transform="matrix(0.05,0,0,0.05,83.9,0)" xlink:href="#aq"/><use transform="matrix(0.05,0,0,0.05,87.85000000000001,0)" xlink:href="#aj"/><use transform="matrix(0.05,0,0,0.05,96.85000000000001,0)" xlink:href="#al"/><use transform="matrix(0.05,0,0,0.05,106.85000000000001,0)" xlink:href="#ba"/><use transform="matrix(0.05,0,0,0.05,119.80000000000001,0)" xlink:href="#bb"/><use transform="matrix(0.05,0,0,0.05,129.8,0)" xlink:href="#aH"/><use transform="matrix(0.05,0,0,0.05,135.75,0)" xlink:href="#aH"/><use transform="matrix(0.05,0,0,0.05,141.7,0)" xlink:href="#al"/><use transform="matrix(0.05,0,0,0.05,151.7,0)" xlink:href="#as"/><use transform="matrix(0.05,0,0,0.05,161.7,0)" xlink:href="#aj"/><use transform="matrix(0.05,0,0,0.05,170.7,0)" xlink:href="#aw"/></g><path fill="#333" d="M195-6C206 82 75 100 31 46c-4-6-6-13-8-21l49-6c3 16 16 24 34 25 40 0 42-37 40-79-11 22-30 35-61 35-53 0-70-43-70-97 0-56 18-96 73-97 30 0 46 14 59 34l2-30h47zm-90-29c32 0 41-27 41-63 0-35-9-62-40-62-32 0-39 29-40 63 0 36 9 62 39 62" id="bc"/><path fill="#333" d="M231 0h-52l-39-155L100 0H48L-1-190h46L77-45c9-52 24-97 36-145h53l37 145 32-145h46" id="bd"/><path fill="#333" d="M135-194c87-1 58 113 63 194h-50c-7-57 23-157-34-157-59 0-34 97-39 157H25l-1-190h47c2 12-1 28 3 38 12-26 28-41 61-42" id="be"/><g id="u"><use transform="matrix(0.04938271604938272,0,0,0.04938271604938272,0,0)" xlink:href="#bc"/><use transform="matrix(0.04938271604938272,0,0,0.04938271604938272,10.814814814814815,0)" xlink:href="#aQ"/><use transform="matrix(0.04938271604938272,0,0,0.04938271604938272,17.728395061728396,0)" xlink:href="#aO"/><use transform="matrix(0.04938271604938272,0,0,0.04938271604938272,23.60493827160494,0)" xlink:href="#R"/><use transform="matrix(0.04938271604938272,0,0,0.04938271604938272,34.41975308641975,0)" xlink:href="#bd"/><use transform="matrix(0.04938271604938272,0,0,0.04938271604938272,48.24691358024691,0)" xlink:href="#be"/><use transform="matrix(0.04938271604938272,0,0,0.04938271604938272,59.06172839506172,0)" xlink:href="#aI"/></g><path fill="#333" d="M23 0v-37h61v-169l-59 37v-38l62-41h46v211h57V0H23" id="bf"/><use transform="matrix(0.04938271604938272,0,0,0.04938271604938272,0,0)" xlink:href="#bf" id="w"/><path d="M24 0v-248h52V0H24" id="bg"/><path d="M88-194c31-1 46 15 58 34l-1-101h50l1 261h-48c-2-10 0-23-3-31C134-8 116 4 84 4 32 4 16-41 15-95c0-56 19-97 73-99zm17 164c33 0 40-30 41-66 1-37-9-64-41-64s-38 30-39 65c0 43 13 65 39 65" id="bh"/><path d="M128 0H69L1-190h53L99-40l48-150h52" id="bi"/><path d="M85 4C-2 5 27-109 22-190h50c7 57-23 150 33 157 60-5 35-97 40-157h50l1 190h-47c-2-12 1-28-3-38-12 25-28 42-61 42" id="bj"/><path d="M25 0v-261h50V0H25" id="bk"/><g id="x"><use transform="matrix(0.05,0,0,0.05,0,0)" xlink:href="#aE"/><use transform="matrix(0.05,0,0,0.05,10.950000000000001,0)" xlink:href="#af"/><use transform="matrix(0.05,0,0,0.05,17.950000000000003,0)" xlink:href="#ad"/><use transform="matrix(0.05,0,0,0.05,23.900000000000002,0)" xlink:href="#bg"/><use transform="matrix(0.05,0,0,0.05,28.900000000000002,0)" xlink:href="#ah"/><use transform="matrix(0.05,0,0,0.05,39.85,0)" xlink:href="#bh"/><use transform="matrix(0.05,0,0,0.05,50.800000000000004,0)" xlink:href="#aB"/><use transform="matrix(0.05,0,0,0.05,55.800000000000004,0)" xlink:href="#bi"/><use transform="matrix(0.05,0,0,0.05,65.80000000000001,0)" xlink:href="#aB"/><use transform="matrix(0.05,0,0,0.05,70.80000000000001,0)" xlink:href="#bh"/><use transform="matrix(0.05,0,0,0.05,81.75000000000001,0)" xlink:href="#bj"/><use transform="matrix(0.05,0,0,0.05,92.70000000000002,0)" xlink:href="#ac"/><use transform="matrix(0.05,0,0,0.05,102.7,0)" xlink:href="#bk"/></g><path fill="#333" d="M24-248c93 1 206-16 204 79-1 75-69 88-152 82V0H24v-248zm52 121c47 0 100 7 100-41 0-47-54-39-100-39v80" id="bl"/><g id="y"><use transform="matrix(0.04938271604938272,0,0,0.04938271604938272,0,0)" xlink:href="#aP"/><use transform="matrix(0.04938271604938272,0,0,0.04938271604938272,10.814814814814815,0)" xlink:href="#aN"/><use transform="matrix(0.04938271604938272,0,0,0.04938271604938272,20.69135802469136,0)" xlink:href="#aS"/><use transform="matrix(0.04938271604938272,0,0,0.04938271604938272,25.629629629629633,0)" xlink:href="#aT"/><use transform="matrix(0.04938271604938272,0,0,0.04938271604938272,36.44444444444445,0)" xlink:href="#bl"/><use transform="matrix(0.04938271604938272,0,0,0.04938271604938272,48.296296296296305,0)" xlink:href="#aQ"/><use transform="matrix(0.04938271604938272,0,0,0.04938271604938272,55.209876543209894,0)" xlink:href="#aS"/><use transform="matrix(0.04938271604938272,0,0,0.04938271604938272,60.14814814814817,0)" xlink:href="#aJ"/><use transform="matrix(0.04938271604938272,0,0,0.04938271604938272,70.02469135802471,0)" xlink:href="#aL"/></g><path fill="#333" d="M76-208v77h127v40H76V0H24v-248h183v40H76" id="bm"/><g id="z"><use transform="matrix(0.04938271604938272,0,0,0.04938271604938272,0,0)" xlink:href="#aW"/><use transform="matrix(0.04938271604938272,0,0,0.04938271604938272,10.814814814814815,0)" xlink:href="#aQ"/><use transform="matrix(0.04938271604938272,0,0,0.04938271604938272,17.728395061728396,0)" xlink:href="#R"/><use transform="matrix(0.04938271604938272,0,0,0.04938271604938272,28.543209876543205,0)" xlink:href="#aX"/><use transform="matrix(0.04938271604938272,0,0,0.04938271604938272,38.41975308641975,0)" xlink:href="#aL"/><use transform="matrix(0.04938271604938272,0,0,0.04938271604938272,48.2962962962963,0)" xlink:href="#aQ"/><use transform="matrix(0.04938271604938272,0,0,0.04938271604938272,55.20987654320988,0)" xlink:href="#bm"/><use transform="matrix(0.04938271604938272,0,0,0.04938271604938272,66.0246913580247,0)" xlink:href="#aL"/><use transform="matrix(0.04938271604938272,0,0,0.04938271604938272,75.90123456790124,0)" xlink:href="#aL"/></g><g id="A"><use transform="matrix(0.05,0,0,0.05,0,0)" xlink:href="#X"/><use transform="matrix(0.05,0,0,0.05,10,0)" xlink:href="#Y"/><use transform="matrix(0.05,0,0,0.05,20,0)" xlink:href="#Z"/><use transform="matrix(0.05,0,0,0.05,30.950000000000003,0)" xlink:href="#aa"/><use transform="matrix(0.05,0,0,0.05,40.95,0)" xlink:href="#ab"/><use transform="matrix(0.05,0,0,0.05,56.95,0)" xlink:href="#ac"/><use transform="matrix(0.05,0,0,0.05,66.95,0)" xlink:href="#ad"/><use transform="matrix(0.05,0,0,0.05,72.9,0)" xlink:href="#bg"/><use transform="matrix(0.05,0,0,0.05,77.9,0)" xlink:href="#ah"/><use transform="matrix(0.05,0,0,0.05,88.85000000000001,0)" xlink:href="#bi"/><use transform="matrix(0.05,0,0,0.05,98.85000000000001,0)" xlink:href="#ag"/><use transform="matrix(0.05,0,0,0.05,109.80000000000001,0)" xlink:href="#aB"/><use transform="matrix(0.05,0,0,0.05,114.80000000000001,0)" xlink:href="#Y"/><use transform="matrix(0.05,0,0,0.05,124.80000000000001,0)" xlink:href="#aa"/></g><path fill="#333" d="M140-251c80 0 125 45 125 126S219 4 139 4C58 4 15-44 15-125s44-126 125-126zm-1 214c52 0 73-35 73-88 0-50-21-86-72-86-52 0-73 35-73 86s22 88 72 88" id="bn"/><g id="B"><use transform="matrix(0.04938271604938272,0,0,0.04938271604938272,0,0)" xlink:href="#aI"/><use transform="matrix(0.04938271604938272,0,0,0.04938271604938272,9.876543209876544,0)" xlink:href="#aJ"/><use transform="matrix(0.04938271604938272,0,0,0.04938271604938272,19.75308641975309,0)" xlink:href="#aK"/><use transform="matrix(0.04938271604938272,0,0,0.04938271604938272,30.567901234567906,0)" xlink:href="#aL"/><use transform="matrix(0.04938271604938272,0,0,0.04938271604938272,40.44444444444445,0)" xlink:href="#aM"/><use transform="matrix(0.04938271604938272,0,0,0.04938271604938272,56.24691358024692,0)" xlink:href="#aN"/><use transform="matrix(0.04938271604938272,0,0,0.04938271604938272,66.12345679012347,0)" xlink:href="#aO"/><use transform="matrix(0.04938271604938272,0,0,0.04938271604938272,72.00000000000001,0)" xlink:href="#aS"/><use transform="matrix(0.04938271604938272,0,0,0.04938271604938272,76.93827160493828,0)" xlink:href="#aV"/><use transform="matrix(0.04938271604938272,0,0,0.04938271604938272,82.81481481481482,0)" xlink:href="#aL"/><use transform="matrix(0.04938271604938272,0,0,0.04938271604938272,92.69135802469137,0)" xlink:href="#aM"/><use transform="matrix(0.04938271604938272,0,0,0.04938271604938272,108.49382716049384,0)" xlink:href="#bn"/><use transform="matrix(0.04938271604938272,0,0,0.04938271604938272,122.320987654321,0)" xlink:href="#S"/><use transform="matrix(0.04938271604938272,0,0,0.04938271604938272,128.19753086419755,0)" xlink:href="#S"/><use transform="matrix(0.04938271604938272,0,0,0.04938271604938272,134.07407407407408,0)" xlink:href="#aL"/><use transform="matrix(0.04938271604938272,0,0,0.04938271604938272,143.95061728395063,0)" xlink:href="#aQ"/><use transform="matrix(0.04938271604938272,0,0,0.04938271604938272,150.8641975308642,0)" xlink:href="#aL"/><use transform="matrix(0.04938271604938272,0,0,0.04938271604938272,160.74074074074076,0)" xlink:href="#aT"/></g><g id="C"><use transform="matrix(0.04938271604938272,0,0,0.04938271604938272,0,0)" xlink:href="#aI"/><use transform="matrix(0.04938271604938272,0,0,0.04938271604938272,9.876543209876544,0)" xlink:href="#aJ"/><use transform="matrix(0.04938271604938272,0,0,0.04938271604938272,19.75308641975309,0)" xlink:href="#aK"/><use transform="matrix(0.04938271604938272,0,0,0.04938271604938272,30.567901234567906,0)" xlink:href="#aL"/><use transform="matrix(0.04938271604938272,0,0,0.04938271604938272,40.44444444444445,0)" xlink:href="#aM"/><use transform="matrix(0.04938271604938272,0,0,0.04938271604938272,56.24691358024692,0)" xlink:href="#aN"/><use transform="matrix(0.04938271604938272,0,0,0.04938271604938272,66.12345679012347,0)" xlink:href="#aO"/><use transform="matrix(0.04938271604938272,0,0,0.04938271604938272,72.00000000000001,0)" xlink:href="#aN"/><use transform="matrix(0.04938271604938272,0,0,0.04938271604938272,81.87654320987656,0)" xlink:href="#aJ"/><use transform="matrix(0.04938271604938272,0,0,0.04938271604938272,91.7530864197531,0)" xlink:href="#aJ"/><use transform="matrix(0.04938271604938272,0,0,0.04938271604938272,101.62962962962963,0)" xlink:href="#aL"/><use transform="matrix(0.04938271604938272,0,0,0.04938271604938272,111.50617283950618,0)" xlink:href="#aP"/><use transform="matrix(0.04938271604938272,0,0,0.04938271604938272,122.320987654321,0)" xlink:href="#aV"/><use transform="matrix(0.04938271604938272,0,0,0.04938271604938272,128.19753086419755,0)" xlink:href="#aL"/><use transform="matrix(0.04938271604938272,0,0,0.04938271604938272,138.07407407407408,0)" xlink:href="#aT"/><use transform="matrix(0.04938271604938272,0,0,0.04938271604938272,148.88888888888889,0)" xlink:href="#bn"/><use transform="matrix(0.04938271604938272,0,0,0.04938271604938272,162.71604938271605,0)" xlink:href="#S"/><use transform="matrix(0.04938271604938272,0,0,0.04938271604938272,168.59259259259258,0)" xlink:href="#S"/><use transform="matrix(0.04938271604938272,0,0,0.04938271604938272,174.4691358024691,0)" xlink:href="#aL"/><use transform="matrix(0.04938271604938272,0,0,0.04938271604938272,184.34567901234567,0)" xlink:href="#aQ"/></g><g id="D"><use transform="matrix(0.05,0,0,0.05,0,0)" xlink:href="#T"/><use transform="matrix(0.05,0,0,0.05,10,0)" xlink:href="#U"/><use transform="matrix(0.05,0,0,0.05,15,0)" xlink:href="#U"/><use transform="matrix(0.05,0,0,0.05,20,0)" xlink:href="#W"/></g><g id="E"><use transform="matrix(0.04938271604938272,0,0,0.04938271604938272,0,0)" xlink:href="#aI"/><use transform="matrix(0.04938271604938272,0,0,0.04938271604938272,9.876543209876544,0)" xlink:href="#aJ"/><use transform="matrix(0.04938271604938272,0,0,0.04938271604938272,19.75308641975309,0)" xlink:href="#aK"/><use transform="matrix(0.04938271604938272,0,0,0.04938271604938272,30.567901234567906,0)" xlink:href="#aL"/><use transform="matrix(0.04938271604938272,0,0,0.04938271604938272,40.44444444444445,0)" xlink:href="#aM"/><use transform="matrix(0.04938271604938272,0,0,0.04938271604938272,56.24691358024692,0)" xlink:href="#aN"/><use transform="matrix(0.04938271604938272,0,0,0.04938271604938272,66.12345679012347,0)" xlink:href="#aO"/><use transform="matrix(0.04938271604938272,0,0,0.04938271604938272,72.00000000000001,0)" xlink:href="#aQ"/><use transform="matrix(0.04938271604938272,0,0,0.04938271604938272,78.9135802469136,0)" xlink:href="#aL"/><use transform="matrix(0.04938271604938272,0,0,0.04938271604938272,88.79012345679014,0)" xlink:href="#S"/><use transform="matrix(0.04938271604938272,0,0,0.04938271604938272,94.66666666666669,0)" xlink:href="#aL"/><use transform="matrix(0.04938271604938272,0,0,0.04938271604938272,104.54320987654324,0)" xlink:href="#aQ"/><use transform="matrix(0.04938271604938272,0,0,0.04938271604938272,111.45679012345683,0)" xlink:href="#aL"/><use transform="matrix(0.04938271604938272,0,0,0.04938271604938272,121.33333333333337,0)" xlink:href="#be"/><use transform="matrix(0.04938271604938272,0,0,0.04938271604938272,132.14814814814818,0)" xlink:href="#aJ"/><use transform="matrix(0.04938271604938272,0,0,0.04938271604938272,142.0246913580247,0)" xlink:href="#aL"/><use transform="matrix(0.04938271604938272,0,0,0.04938271604938272,151.90123456790127,0)" xlink:href="#aI"/><use transform="matrix(0.04938271604938272,0,0,0.04938271604938272,161.77777777777783,0)" xlink:href="#bn"/><use transform="matrix(0.04938271604938272,0,0,0.04938271604938272,175.604938271605,0)" xlink:href="#aQ"/><use transform="matrix(0.04938271604938272,0,0,0.04938271604938272,182.51851851851856,0)" xlink:href="#aT"/><use transform="matrix(0.04938271604938272,0,0,0.04938271604938272,193.33333333333337,0)" xlink:href="#aL"/><use transform="matrix(0.04938271604938272,0,0,0.04938271604938272,203.20987654320993,0)" xlink:href="#aQ"/></g><g id="F"><use transform="matrix(0.05,0,0,0.05,0,0)" xlink:href="#W"/><use transform="matrix(0.05,0,0,0.05,10,0)" xlink:href="#U"/><use transform="matrix(0.05,0,0,0.05,15,0)" xlink:href="#U"/><use transform="matrix(0.05,0,0,0.05,20,0)" xlink:href="#V"/></g><path d="M147 0L96-86 75-71V0H25v-261h50v150l67-79h53l-66 74L201 0h-54" id="bo"/><g id="G"><use transform="matrix(0.05,0,0,0.05,0,0)" xlink:href="#X"/><use transform="matrix(0.05,0,0,0.05,10,0)" xlink:href="#aA"/><use transform="matrix(0.05,0,0,0.05,15.949999999999998,0)" xlink:href="#ag"/><use transform="matrix(0.05,0,0,0.05,26.899999999999995,0)" xlink:href="#Y"/><use transform="matrix(0.05,0,0,0.05,36.9,0)" xlink:href="#bo"/><use transform="matrix(0.05,0,0,0.05,46.9,0)" xlink:href="#aD"/><use transform="matrix(0.05,0,0,0.05,60.900000000000006,0)" xlink:href="#aZ"/><use transform="matrix(0.05,0,0,0.05,66.85,0)" xlink:href="#aZ"/><use transform="matrix(0.05,0,0,0.05,72.8,0)" xlink:href="#aa"/><use transform="matrix(0.05,0,0,0.05,82.8,0)" xlink:href="#af"/></g><path fill="#333" d="M169-182c-1-43-94-46-97-3 18 66 151 10 154 114 3 95-165 93-204 36-6-8-10-19-12-30l50-8c3 46 112 56 116 5-17-69-150-10-154-114-4-87 153-88 188-35 5 8 8 18 10 28" id="bp"/><g id="H"><use transform="matrix(0.04938271604938272,0,0,0.04938271604938272,0,0)" xlink:href="#aI"/><use transform="matrix(0.04938271604938272,0,0,0.04938271604938272,9.876543209876544,0)" xlink:href="#aJ"/><use transform="matrix(0.04938271604938272,0,0,0.04938271604938272,19.75308641975309,0)" xlink:href="#aK"/><use transform="matrix(0.04938271604938272,0,0,0.04938271604938272,30.567901234567906,0)" xlink:href="#aL"/><use transform="matrix(0.04938271604938272,0,0,0.04938271604938272,40.44444444444445,0)" xlink:href="#aM"/><use transform="matrix(0.04938271604938272,0,0,0.04938271604938272,56.24691358024692,0)" xlink:href="#aN"/><use transform="matrix(0.04938271604938272,0,0,0.04938271604938272,66.12345679012347,0)" xlink:href="#aO"/><use transform="matrix(0.04938271604938272,0,0,0.04938271604938272,72.00000000000001,0)" xlink:href="#aP"/><use transform="matrix(0.04938271604938272,0,0,0.04938271604938272,82.81481481481482,0)" xlink:href="#aQ"/><use transform="matrix(0.04938271604938272,0,0,0.04938271604938272,89.7283950617284,0)" xlink:href="#aS"/><use transform="matrix(0.04938271604938272,0,0,0.04938271604938272,94.66666666666669,0)" xlink:href="#aJ"/><use transform="matrix(0.04938271604938272,0,0,0.04938271604938272,104.54320987654324,0)" xlink:href="#aL"/><use transform="matrix(0.04938271604938272,0,0,0.04938271604938272,114.41975308641979,0)" xlink:href="#bp"/><use transform="matrix(0.04938271604938272,0,0,0.04938271604938272,126.27160493827162,0)" xlink:href="#aP"/><use transform="matrix(0.04938271604938272,0,0,0.04938271604938272,137.08641975308643,0)" xlink:href="#aL"/><use transform="matrix(0.04938271604938272,0,0,0.04938271604938272,146.962962962963,0)" xlink:href="#aJ"/><use transform="matrix(0.04938271604938272,0,0,0.04938271604938272,156.83950617283955,0)" xlink:href="#aS"/><use transform="matrix(0.04938271604938272,0,0,0.04938271604938272,161.77777777777783,0)" xlink:href="#S"/><use transform="matrix(0.04938271604938272,0,0,0.04938271604938272,167.65432098765436,0)" xlink:href="#aS"/><use transform="matrix(0.04938271604938272,0,0,0.04938271604938272,172.59259259259264,0)" xlink:href="#aJ"/><use transform="matrix(0.04938271604938272,0,0,0.04938271604938272,182.46913580246917,0)" xlink:href="#aN"/><use transform="matrix(0.04938271604938272,0,0,0.04938271604938272,192.34567901234573,0)" xlink:href="#aV"/><use transform="matrix(0.04938271604938272,0,0,0.04938271604938272,198.22222222222226,0)" xlink:href="#aS"/><use transform="matrix(0.04938271604938272,0,0,0.04938271604938272,203.16049382716056,0)" xlink:href="#R"/><use transform="matrix(0.04938271604938272,0,0,0.04938271604938272,213.97530864197532,0)" xlink:href="#be"/></g><g id="I"><use transform="matrix(0.05,0,0,0.05,0,0)" xlink:href="#aY"/><use transform="matrix(0.05,0,0,0.05,12,0)" xlink:href="#aA"/><use transform="matrix(0.05,0,0,0.05,17.95,0)" xlink:href="#ag"/><use transform="matrix(0.05,0,0,0.05,28.899999999999995,0)" xlink:href="#Y"/><use transform="matrix(0.05,0,0,0.05,38.9,0)" xlink:href="#bo"/></g><g id="J"><use transform="matrix(0.05,0,0,0.05,0,0)" xlink:href="#aY"/><use transform="matrix(0.05,0,0,0.05,12,0)" xlink:href="#aA"/><use transform="matrix(0.05,0,0,0.05,17.95,0)" xlink:href="#ag"/><use transform="matrix(0.05,0,0,0.05,28.899999999999995,0)" xlink:href="#Y"/><use transform="matrix(0.05,0,0,0.05,38.9,0)" xlink:href="#bo"/><use transform="matrix(0.05,0,0,0.05,48.9,0)" xlink:href="#bg"/><use transform="matrix(0.05,0,0,0.05,53.900000000000006,0)" xlink:href="#ah"/><use transform="matrix(0.05,0,0,0.05,64.85,0)" xlink:href="#bi"/><use transform="matrix(0.05,0,0,0.05,74.85,0)" xlink:href="#ag"/><use transform="matrix(0.05,0,0,0.05,85.8,0)" xlink:href="#aB"/><use transform="matrix(0.05,0,0,0.05,90.8,0)" xlink:href="#Y"/><use transform="matrix(0.05,0,0,0.05,100.8,0)" xlink:href="#aa"/></g><g id="K"><use transform="matrix(0.05,0,0,0.05,0,0)" xlink:href="#X"/><use transform="matrix(0.05,0,0,0.05,10,0)" xlink:href="#Y"/><use transform="matrix(0.05,0,0,0.05,20,0)" xlink:href="#Z"/><use transform="matrix(0.05,0,0,0.05,30.950000000000003,0)" xlink:href="#aa"/><use transform="matrix(0.05,0,0,0.05,40.95,0)" xlink:href="#ab"/><use transform="matrix(0.05,0,0,0.05,56.95,0)" xlink:href="#ac"/><use transform="matrix(0.05,0,0,0.05,66.95,0)" xlink:href="#ad"/><use transform="matrix(0.05,0,0,0.05,72.9,0)" xlink:href="#aD"/><use transform="matrix(0.05,0,0,0.05,86.9,0)" xlink:href="#af"/><use transform="matrix(0.05,0,0,0.05,93.9,0)" xlink:href="#bh"/><use transform="matrix(0.05,0,0,0.05,104.85000000000001,0)" xlink:href="#aa"/><use transform="matrix(0.05,0,0,0.05,114.85000000000001,0)" xlink:href="#af"/></g><path d="M30-248c118-7 216 8 213 122C240-48 200 0 122 0H30v-248zM63-27c89 8 146-16 146-99s-60-101-146-95v194" id="bq"/><g id="L"><use transform="matrix(0.05,0,0,0.05,0,0)" xlink:href="#ai"/><use transform="matrix(0.05,0,0,0.05,9,0)" xlink:href="#aj"/><use transform="matrix(0.05,0,0,0.05,18,0)" xlink:href="#ak"/><use transform="matrix(0.05,0,0,0.05,28,0)" xlink:href="#al"/><use transform="matrix(0.05,0,0,0.05,38,0)" xlink:href="#am"/><use transform="matrix(0.05,0,0,0.05,52.95,0)" xlink:href="#an"/><use transform="matrix(0.05,0,0,0.05,62.95,0)" xlink:href="#ao"/><use transform="matrix(0.05,0,0,0.05,67.95,0)" xlink:href="#az"/><use transform="matrix(0.05,0,0,0.05,77.95,0)" xlink:href="#aH"/><use transform="matrix(0.05,0,0,0.05,83.9,0)" xlink:href="#aG"/><use transform="matrix(0.05,0,0,0.05,93.9,0)" xlink:href="#al"/><use transform="matrix(0.05,0,0,0.05,103.9,0)" xlink:href="#aH"/><use transform="matrix(0.05,0,0,0.05,109.85000000000001,0)" xlink:href="#bq"/><use transform="matrix(0.05,0,0,0.05,122.80000000000001,0)" xlink:href="#an"/><use transform="matrix(0.05,0,0,0.05,132.8,0)" xlink:href="#ax"/><use transform="matrix(0.05,0,0,0.05,137.8,0)" xlink:href="#al"/></g><path d="M115-194c53 0 69 39 70 98 0 66-23 100-70 100C84 3 66-7 56-30L54 0H23l1-261h32v101c10-23 28-34 59-34zm-8 174c40 0 45-34 45-75 0-40-5-75-45-74-42 0-51 32-51 76 0 43 10 73 51 73" id="br"/><g id="M"><use transform="matrix(0.05,0,0,0.05,0,0)" xlink:href="#ai"/><use transform="matrix(0.05,0,0,0.05,9,0)" xlink:href="#aj"/><use transform="matrix(0.05,0,0,0.05,18,0)" xlink:href="#ak"/><use transform="matrix(0.05,0,0,0.05,28,0)" xlink:href="#al"/><use transform="matrix(0.05,0,0,0.05,38,0)" xlink:href="#am"/><use transform="matrix(0.05,0,0,0.05,52.95,0)" xlink:href="#an"/><use transform="matrix(0.05,0,0,0.05,62.95,0)" xlink:href="#ao"/><use transform="matrix(0.05,0,0,0.05,67.95,0)" xlink:href="#az"/><use transform="matrix(0.05,0,0,0.05,77.95,0)" xlink:href="#aH"/><use transform="matrix(0.05,0,0,0.05,83.9,0)" xlink:href="#aG"/><use transform="matrix(0.05,0,0,0.05,93.9,0)" xlink:href="#al"/><use transform="matrix(0.05,0,0,0.05,103.9,0)" xlink:href="#aH"/><use transform="matrix(0.05,0,0,0.05,109.85000000000001,0)" xlink:href="#at"/><use transform="matrix(0.05,0,0,0.05,122.80000000000001,0)" xlink:href="#bb"/><use transform="matrix(0.05,0,0,0.05,132.8,0)" xlink:href="#am"/><use transform="matrix(0.05,0,0,0.05,147.75,0)" xlink:href="#br"/><use transform="matrix(0.05,0,0,0.05,157.75,0)" xlink:href="#al"/><use transform="matrix(0.05,0,0,0.05,167.75,0)" xlink:href="#aH"/></g><g id="N"><use transform="matrix(0.05,0,0,0.05,0,0)" xlink:href="#X"/><use transform="matrix(0.05,0,0,0.05,10,0)" xlink:href="#Y"/><use transform="matrix(0.05,0,0,0.05,20,0)" xlink:href="#Z"/><use transform="matrix(0.05,0,0,0.05,30.950000000000003,0)" xlink:href="#aa"/><use transform="matrix(0.05,0,0,0.05,40.95,0)" xlink:href="#ab"/><use transform="matrix(0.05,0,0,0.05,56.95,0)" xlink:href="#ac"/><use transform="matrix(0.05,0,0,0.05,66.95,0)" xlink:href="#ad"/><use transform="matrix(0.05,0,0,0.05,72.9,0)" xlink:href="#aD"/><use transform="matrix(0.05,0,0,0.05,86.9,0)" xlink:href="#aZ"/><use transform="matrix(0.05,0,0,0.05,92.85000000000001,0)" xlink:href="#aZ"/><use transform="matrix(0.05,0,0,0.05,98.80000000000001,0)" xlink:href="#aa"/><use transform="matrix(0.05,0,0,0.05,108.80000000000001,0)" xlink:href="#af"/></g><g id="O"><use transform="matrix(0.05,0,0,0.05,0,0)" xlink:href="#X"/><use transform="matrix(0.05,0,0,0.05,10,0)" xlink:href="#Y"/><use transform="matrix(0.05,0,0,0.05,20,0)" xlink:href="#Z"/><use transform="matrix(0.05,0,0,0.05,30.950000000000003,0)" xlink:href="#aa"/><use transform="matrix(0.05,0,0,0.05,40.95,0)" xlink:href="#ab"/><use transform="matrix(0.05,0,0,0.05,56.95,0)" xlink:href="#ac"/><use transform="matrix(0.05,0,0,0.05,66.95,0)" xlink:href="#ad"/><use transform="matrix(0.05,0,0,0.05,72.9,0)" xlink:href="#aE"/><use transform="matrix(0.05,0,0,0.05,83.85000000000001,0)" xlink:href="#aA"/><use transform="matrix(0.05,0,0,0.05,89.80000000000001,0)" xlink:href="#aB"/><use transform="matrix(0.05,0,0,0.05,94.80000000000001,0)" xlink:href="#ah"/></g><path fill="#333" d="M25 0v-261h50V0H25" id="bs"/><g id="P"><use transform="matrix(0.04938271604938272,0,0,0.04938271604938272,0,0)" xlink:href="#aI"/><use transform="matrix(0.04938271604938272,0,0,0.04938271604938272,9.876543209876544,0)" xlink:href="#aJ"/><use transform="matrix(0.04938271604938272,0,0,0.04938271604938272,19.75308641975309,0)" xlink:href="#aK"/><use transform="matrix(0.04938271604938272,0,0,0.04938271604938272,30.567901234567906,0)" xlink:href="#aL"/><use transform="matrix(0.04938271604938272,0,0,0.04938271604938272,40.44444444444445,0)" xlink:href="#aM"/><use transform="matrix(0.04938271604938272,0,0,0.04938271604938272,56.24691358024692,0)" xlink:href="#aN"/><use transform="matrix(0.04938271604938272,0,0,0.04938271604938272,66.12345679012347,0)" xlink:href="#aO"/><use transform="matrix(0.04938271604938272,0,0,0.04938271604938272,72.00000000000001,0)" xlink:href="#aI"/><use transform="matrix(0.04938271604938272,0,0,0.04938271604938272,81.87654320987656,0)" xlink:href="#aL"/><use transform="matrix(0.04938271604938272,0,0,0.04938271604938272,91.7530864197531,0)" xlink:href="#bs"/><use transform="matrix(0.04938271604938272,0,0,0.04938271604938272,96.69135802469137,0)" xlink:href="#bs"/><use transform="matrix(0.04938271604938272,0,0,0.04938271604938272,101.62962962962963,0)" xlink:href="#aL"/><use transform="matrix(0.04938271604938272,0,0,0.04938271604938272,111.50617283950618,0)" xlink:href="#aQ"/></g><g id="Q"><use transform="matrix(0.04938271604938272,0,0,0.04938271604938272,0,0)" xlink:href="#aW"/><use transform="matrix(0.04938271604938272,0,0,0.04938271604938272,10.814814814814815,0)" xlink:href="#aQ"/><use transform="matrix(0.04938271604938272,0,0,0.04938271604938272,17.728395061728396,0)" xlink:href="#R"/><use transform="matrix(0.04938271604938272,0,0,0.04938271604938272,28.543209876543205,0)" xlink:href="#aX"/><use transform="matrix(0.04938271604938272,0,0,0.04938271604938272,38.41975308641975,0)" xlink:href="#aL"/><use transform="matrix(0.04938271604938272,0,0,0.04938271604938272,48.2962962962963,0)" xlink:href="#aQ"/></g></defs></g></svg>